<svg width="61" height="60" viewBox="0 0 61 60" fill="none" xmlns="http://www.w3.org/2000/svg">
<path d="M13 42.5H10.5C9.17392 42.5 7.90215 41.9732 6.96447 41.0355C6.02678 40.0979 5.5 38.8261 5.5 37.5V12.5C5.5 11.1739 6.02678 9.90215 6.96447 8.96447C7.90215 8.02678 9.17392 7.5 10.5 7.5H50.5C51.8261 7.5 53.0979 8.02678 54.0355 8.96447C54.9732 9.90215 55.5 11.1739 55.5 12.5V37.5C55.5 38.8261 54.9732 40.0979 54.0355 41.0355C53.0979 41.9732 51.8261 42.5 50.5 42.5H48" stroke="#EC3D3D" stroke-width="5" stroke-linecap="round" stroke-linejoin="round"/>
<path d="M30.5 37.5L43 52.5H18L30.5 37.5Z" stroke="#EC3D3D" stroke-width="5" stroke-linecap="round" stroke-linejoin="round"/>
</svg>
