<svg width="61" height="60" viewBox="0 0 61 60" fill="none" xmlns="http://www.w3.org/2000/svg">
<path d="M45.5 20C45.5 16.0218 43.9196 12.2064 41.1066 9.3934C38.2936 6.58035 34.4782 5 30.5 5C26.5218 5 22.7064 6.58035 19.8934 9.3934C17.0804 12.2064 15.5 16.0218 15.5 20C15.5 37.5 8 42.5 8 42.5H53C53 42.5 45.5 37.5 45.5 20Z" stroke="#EC3D3D" stroke-width="5" stroke-linecap="round" stroke-linejoin="round"/>
<path d="M34.825 52.5C34.3855 53.2577 33.7546 53.8866 32.9956 54.3238C32.2365 54.761 31.3759 54.9911 30.5 54.9911C29.624 54.9911 28.7635 54.761 28.0044 54.3238C27.2454 53.8866 26.6145 53.2577 26.175 52.5" stroke="#EC3D3D" stroke-width="5" stroke-linecap="round" stroke-linejoin="round"/>
</svg>
