<svg width="65" height="66" viewBox="0 0 65 66" fill="none" xmlns="http://www.w3.org/2000/svg">
<path d="M52.5 3C49.8478 3 47.3043 4.05357 45.4289 5.92893C43.5536 7.8043 42.5 10.3478 42.5 13V53C42.5 55.6522 43.5536 58.1957 45.4289 60.0711C47.3043 61.9464 49.8478 63 52.5 63C55.1522 63 57.6957 61.9464 59.5711 60.0711C61.4464 58.1957 62.5 55.6522 62.5 53C62.5 50.3478 61.4464 47.8043 59.5711 45.9289C57.6957 44.0536 55.1522 43 52.5 43H12.5C9.84783 43 7.3043 44.0536 5.42893 45.9289C3.55357 47.8043 2.5 50.3478 2.5 53C2.5 55.6522 3.55357 58.1957 5.42893 60.0711C7.3043 61.9464 9.84783 63 12.5 63C15.1522 63 17.6957 61.9464 19.5711 60.0711C21.4464 58.1957 22.5 55.6522 22.5 53V13C22.5 10.3478 21.4464 7.8043 19.5711 5.92893C17.6957 4.05357 15.1522 3 12.5 3C9.84783 3 7.3043 4.05357 5.42893 5.92893C3.55357 7.8043 2.5 10.3478 2.5 13C2.5 15.6522 3.55357 18.1957 5.42893 20.0711C7.3043 21.9464 9.84783 23 12.5 23H52.5C55.1522 23 57.6957 21.9464 59.5711 20.0711C61.4464 18.1957 62.5 15.6522 62.5 13C62.5 10.3478 61.4464 7.8043 59.5711 5.92893C57.6957 4.05357 55.1522 3 52.5 3Z" stroke="#EC3D3D" stroke-width="5" stroke-linecap="round" stroke-linejoin="round"/>
</svg>
