<svg width="114" height="89" viewBox="0 0 114 89" fill="none" xmlns="http://www.w3.org/2000/svg">
<path d="M26.82 53.2C27.94 53.2 28.5 54.04 28.5 55.72C28.5 58.88 26.02 60.46 21.06 60.46C20.1 60.46 18.72 60.28 16.92 59.92C17.44 62.4 17.86 65.16 18.18 68.2C18.54 71.2 18.72 73.68 18.72 75.64C18.72 79.96 18.02 83.26 16.62 85.54C15.22 87.82 13.38 88.96 11.1 88.96C8.22 88.96 6.16 86.92 4.92 82.84C3.72 78.76 3.12 72.6 3.12 64.36C3.12 56.68 3.94 48.9 5.58 41.02C7.26 33.1 9.54 26.56 12.42 21.4C15.34 16.2 18.54 13.6 22.02 13.6C23.9 13.6 25.36 14.44 26.4 16.12C27.48 17.8 28.02 20.06 28.02 22.9C28.02 32.3 22.4 42.54 11.16 53.62C10.76 57.54 10.56 60.98 10.56 63.94C10.56 68.06 10.7 72.28 10.98 76.6C11.26 80.96 11.72 83.14 12.36 83.14C13.56 83.14 14.16 81.06 14.16 76.9C14.16 73.78 13.94 70.76 13.5 67.84C13.1 64.92 12.54 61.84 11.82 58.6C11.78 58.08 11.94 57.42 12.3 56.62C12.7 55.82 13.18 55.12 13.74 54.52C14.3 53.92 14.8 53.62 15.24 53.62C16.04 53.62 17 53.66 18.12 53.74C18.48 53.78 18.9 53.8 19.38 53.8C20.98 53.8 22.76 53.66 24.72 53.38C25.04 53.34 25.38 53.3 25.74 53.26C26.1 53.22 26.46 53.2 26.82 53.2ZM20.76 19.54C20.04 19.54 19.14 20.76 18.06 23.2C17.02 25.64 15.98 28.88 14.94 32.92C13.9 36.92 13 41.16 12.24 45.64C15.44 42 17.9 38.22 19.62 34.3C21.34 30.34 22.22 26.64 22.26 23.2C22.26 20.76 21.76 19.54 20.76 19.54Z" fill="#EC3D3D"/>
<path d="M35.35 45.425C35.5667 45.425 35.7333 45.525 35.85 45.725C35.9833 45.925 36.05 46.2 36.05 46.55C36.05 47.2167 35.8917 47.7333 35.575 48.1C34.9583 48.85 34.0833 49.5417 32.95 50.175C31.8333 50.8083 30.6333 51.125 29.35 51.125C27.6 51.125 26.2417 50.65 25.275 49.7C24.3083 48.75 23.825 47.45 23.825 45.8C23.825 44.65 24.0667 43.5833 24.55 42.6C25.0333 41.6 25.7 40.8083 26.55 40.225C27.4167 39.6417 28.3917 39.35 29.475 39.35C30.4417 39.35 31.2167 39.6417 31.8 40.225C32.3833 40.7917 32.675 41.5667 32.675 42.55C32.675 43.7 32.2583 44.6917 31.425 45.525C30.6083 46.3417 29.2167 46.9917 27.25 47.475C27.6667 48.2417 28.4583 48.625 29.625 48.625C30.375 48.625 31.225 48.3667 32.175 47.85C33.1417 47.3167 33.975 46.625 34.675 45.775C34.875 45.5417 35.1 45.425 35.35 45.425ZM29.05 41.8C28.4333 41.8 27.9083 42.1583 27.475 42.875C27.0583 43.5917 26.85 44.4583 26.85 45.475V45.525C27.8333 45.2917 28.6083 44.9417 29.175 44.475C29.7417 44.0083 30.025 43.4667 30.025 42.85C30.025 42.5333 29.9333 42.2833 29.75 42.1C29.5833 41.9 29.35 41.8 29.05 41.8ZM47.8895 45.425C48.1061 45.425 48.2728 45.525 48.3895 45.725C48.5228 45.925 48.5895 46.2 48.5895 46.55C48.5895 47.2167 48.4311 47.7333 48.1145 48.1C47.3478 48.9833 46.5561 49.7083 45.7395 50.275C44.9395 50.8417 44.0228 51.125 42.9895 51.125C42.1395 51.125 41.4978 50.8833 41.0645 50.4C40.6311 49.9 40.4145 49.1833 40.4145 48.25C40.4145 47.7833 40.5311 46.95 40.7645 45.75C40.9811 44.7 41.0895 43.975 41.0895 43.575C41.0895 43.3083 40.9978 43.175 40.8145 43.175C40.5978 43.175 40.2895 43.4583 39.8895 44.025C39.4895 44.575 39.0895 45.3083 38.6895 46.225C38.2895 47.1417 37.9645 48.1083 37.7145 49.125C37.3978 50.4583 36.6145 51.125 35.3645 51.125C34.8645 51.125 34.5311 50.95 34.3645 50.6C34.2145 50.2333 34.1395 49.5833 34.1395 48.65C34.1395 48.1167 34.1478 47.6917 34.1645 47.375L34.1895 45.375C34.1895 42.8083 34.4478 40.1333 34.9645 37.35C35.4978 34.5667 36.2728 32.2333 37.2895 30.35C38.3228 28.45 39.5561 27.5 40.9895 27.5C41.7561 27.5 42.3728 27.8333 42.8395 28.5C43.3228 29.15 43.5645 30 43.5645 31.05C43.5645 32.7333 43.0728 34.4833 42.0895 36.3C41.1061 38.1 39.5061 40.2083 37.2895 42.625C37.2395 43.4917 37.2145 44.3833 37.2145 45.3C37.7645 43.8833 38.3728 42.7333 39.0395 41.85C39.7228 40.95 40.3895 40.3083 41.0395 39.925C41.7061 39.5417 42.3145 39.35 42.8645 39.35C43.9478 39.35 44.4895 39.8917 44.4895 40.975C44.4895 41.625 44.3061 42.8 43.9395 44.5C43.6228 45.95 43.4645 46.9083 43.4645 47.375C43.4645 48.0417 43.7061 48.375 44.1895 48.375C44.5228 48.375 44.9145 48.175 45.3645 47.775C45.8311 47.3583 46.4478 46.6917 47.2145 45.775C47.4145 45.5417 47.6395 45.425 47.8895 45.425ZM40.4645 29.975C40.1645 29.975 39.8311 30.4083 39.4645 31.275C39.0978 32.125 38.7395 33.2833 38.3895 34.75C38.0561 36.2 37.7811 37.7833 37.5645 39.5C38.5978 38.2833 39.4478 36.9583 40.1145 35.525C40.7978 34.0917 41.1395 32.7917 41.1395 31.625C41.1395 31.0917 41.0811 30.6833 40.9645 30.4C40.8478 30.1167 40.6811 29.975 40.4645 29.975ZM49.8383 37.7C49.1383 37.7 48.6133 37.5417 48.2633 37.225C47.9133 36.8917 47.7383 36.4333 47.7383 35.85C47.7383 35.2667 47.9633 34.7833 48.4133 34.4C48.8799 34 49.4549 33.8 50.1383 33.8C50.7549 33.8 51.2549 33.95 51.6383 34.25C52.0216 34.55 52.2133 34.975 52.2133 35.525C52.2133 36.1917 51.9966 36.725 51.5633 37.125C51.1299 37.5083 50.5549 37.7 49.8383 37.7ZM49.6383 51.125C48.5549 51.125 47.7633 50.7417 47.2633 49.975C46.7799 49.2083 46.5383 48.1917 46.5383 46.925C46.5383 46.175 46.6299 45.2167 46.8133 44.05C47.0133 42.8667 47.2633 41.7667 47.5633 40.75C47.7133 40.2167 47.9133 39.85 48.1633 39.65C48.4133 39.45 48.8133 39.35 49.3633 39.35C50.2133 39.35 50.6383 39.6333 50.6383 40.2C50.6383 40.6167 50.4799 41.5833 50.1633 43.1C49.7633 44.9333 49.5633 46.175 49.5633 46.825C49.5633 47.325 49.6299 47.7083 49.7633 47.975C49.8966 48.2417 50.1216 48.375 50.4383 48.375C50.7383 48.375 51.1133 48.1667 51.5633 47.75C52.0133 47.3333 52.6133 46.675 53.3633 45.775C53.5633 45.5417 53.7883 45.425 54.0383 45.425C54.2549 45.425 54.4216 45.525 54.5383 45.725C54.6716 45.925 54.7383 46.2 54.7383 46.55C54.7383 47.2167 54.5799 47.7333 54.2633 48.1C52.6133 50.1167 51.0716 51.125 49.6383 51.125ZM54.4906 51.125C53.8573 51.125 53.4073 50.7917 53.1406 50.125C52.8906 49.4583 52.7656 48.3917 52.7656 46.925C52.7656 44.7583 53.074 42.7 53.6906 40.75C53.8406 40.2667 54.0823 39.9167 54.4156 39.7C54.7656 39.4667 55.249 39.35 55.8656 39.35C56.199 39.35 56.4323 39.3917 56.5656 39.475C56.699 39.5583 56.7656 39.7167 56.7656 39.95C56.7656 40.2167 56.6406 40.8167 56.3906 41.75C56.224 42.4167 56.0906 43 55.9906 43.5C55.8906 44 55.8073 44.6167 55.7406 45.35C56.2906 43.9167 56.9073 42.75 57.5906 41.85C58.274 40.95 58.9406 40.3083 59.5906 39.925C60.2573 39.5417 60.8656 39.35 61.4156 39.35C62.499 39.35 63.0406 39.8917 63.0406 40.975C63.0406 41.625 62.8573 42.8 62.4906 44.5C62.174 45.95 62.0156 46.9083 62.0156 47.375C62.0156 48.0417 62.2573 48.375 62.7406 48.375C63.074 48.375 63.4656 48.175 63.9156 47.775C64.3823 47.3583 64.999 46.6917 65.7656 45.775C65.9656 45.5417 66.1906 45.425 66.4406 45.425C66.6573 45.425 66.824 45.525 66.9406 45.725C67.074 45.925 67.1406 46.2 67.1406 46.55C67.1406 47.2167 66.9823 47.7333 66.6656 48.1C65.949 48.9833 65.174 49.7083 64.3406 50.275C63.524 50.8417 62.5906 51.125 61.5406 51.125C60.6906 51.125 60.049 50.8833 59.6156 50.4C59.1823 49.9 58.9656 49.1833 58.9656 48.25C58.9656 47.7833 59.0823 46.95 59.3156 45.75C59.5323 44.7 59.6406 43.975 59.6406 43.575C59.6406 43.3083 59.549 43.175 59.3656 43.175C59.149 43.175 58.8406 43.4583 58.4406 44.025C58.0573 44.575 57.6573 45.3083 57.2406 46.225C56.8406 47.1417 56.5156 48.1083 56.2656 49.125C56.0823 49.9083 55.8656 50.4417 55.6156 50.725C55.3823 50.9917 55.0073 51.125 54.4906 51.125ZM69.243 41.725C69.2096 42.5583 69.193 43.2083 69.193 43.675C69.193 44.875 69.2513 45.8167 69.368 46.5C69.5013 47.1667 69.7096 47.65 69.993 47.95C70.293 48.2333 70.7013 48.375 71.218 48.375C71.4846 48.375 71.8013 48.2917 72.168 48.125C72.5346 47.9583 72.868 47.7417 73.168 47.475C73.3513 47.3083 73.5346 47.225 73.718 47.225C73.918 47.225 74.0763 47.3417 74.193 47.575C74.3263 47.7917 74.393 48.0583 74.393 48.375C74.393 48.6917 74.3263 49 74.193 49.3C74.0763 49.6 73.893 49.85 73.643 50.05C72.7763 50.7667 71.793 51.125 70.693 51.125C69.1096 51.125 67.9513 50.4667 67.218 49.15C66.4846 47.8167 66.118 46.0833 66.118 43.95C66.118 43.2167 66.143 42.475 66.193 41.725H65.218C64.718 41.725 64.3763 41.6333 64.193 41.45C64.0263 41.2667 63.943 40.975 63.943 40.575C63.943 39.6417 64.318 39.175 65.068 39.175H66.493C66.7763 37.3417 67.2096 35.6667 67.793 34.15C68.3763 32.6333 69.0763 31.425 69.893 30.525C70.7263 29.625 71.618 29.175 72.568 29.175C73.268 29.175 73.818 29.4833 74.218 30.1C74.618 30.7167 74.818 31.4917 74.818 32.425C74.818 35.0083 73.7346 37.2583 71.568 39.175H74.368C74.6346 39.175 74.8263 39.2333 74.943 39.35C75.0596 39.4667 75.118 39.6833 75.118 40C75.118 41.15 74.1763 41.725 72.293 41.725H69.243ZM71.893 31.575C71.643 31.575 71.3596 31.8917 71.043 32.525C70.743 33.1417 70.4513 34.0083 70.168 35.125C69.9013 36.225 69.6763 37.45 69.493 38.8C70.4763 37.95 71.2096 37 71.693 35.95C72.193 34.8833 72.443 33.9167 72.443 33.05C72.443 32.0667 72.2596 31.575 71.893 31.575ZM104.769 45.425C104.985 45.425 105.152 45.525 105.269 45.725C105.402 45.925 105.469 46.2 105.469 46.55C105.469 47.2167 105.31 47.7333 104.994 48.1C104.277 48.9833 103.494 49.7083 102.644 50.275C101.81 50.8417 100.86 51.125 99.7938 51.125C98.3271 51.125 97.2354 50.4583 96.5188 49.125C95.8188 47.7917 95.4688 46.0667 95.4688 43.95C95.4688 41.9167 95.7271 39.6 96.2438 37C96.7771 34.4 97.5521 32.1667 98.5688 30.3C99.6021 28.4333 100.827 27.5 102.244 27.5C103.044 27.5 103.669 27.875 104.119 28.625C104.585 29.3583 104.819 30.4167 104.819 31.8C104.819 33.7833 104.269 36.0833 103.169 38.7C102.069 41.3167 100.577 43.9083 98.6938 46.475C98.8104 47.1583 99.0021 47.65 99.2688 47.95C99.5354 48.2333 99.8854 48.375 100.319 48.375C101.002 48.375 101.602 48.1833 102.119 47.8C102.635 47.4 103.294 46.725 104.094 45.775C104.294 45.5417 104.519 45.425 104.769 45.425ZM101.694 29.975C101.31 29.975 100.877 30.6667 100.394 32.05C99.9104 33.4333 99.4854 35.15 99.1188 37.2C98.7521 39.25 98.5521 41.2167 98.5188 43.1C99.7021 41.15 100.644 39.2 101.344 37.25C102.044 35.2833 102.394 33.4917 102.394 31.875C102.394 30.6083 102.16 29.975 101.694 29.975ZM106.079 51.125C105.129 51.125 104.354 50.75 103.754 50C103.171 49.25 102.879 48.2667 102.879 47.05C102.879 45.7167 103.187 44.4583 103.804 43.275C104.421 42.075 105.237 41.1167 106.254 40.4C107.287 39.6667 108.379 39.3 109.529 39.3C109.896 39.3 110.137 39.375 110.254 39.525C110.387 39.6583 110.496 39.9083 110.579 40.275C110.896 40.2083 111.246 40.175 111.629 40.175C112.029 40.175 112.337 40.275 112.554 40.475C112.771 40.675 112.879 40.9583 112.879 41.325C112.879 41.7083 112.796 42.375 112.629 43.325C112.446 44.3417 112.304 45.3167 112.204 46.25C112.104 47.1667 112.054 48.2 112.054 49.35C112.054 49.9833 111.921 50.4417 111.654 50.725C111.404 50.9917 110.987 51.125 110.404 51.125C109.837 51.125 109.412 50.9917 109.129 50.725C108.862 50.4417 108.729 49.9917 108.729 49.375L108.754 48.975C108.237 50.4083 107.346 51.125 106.079 51.125ZM107.054 48.6C107.521 48.6 107.946 48.275 108.329 47.625C108.712 46.975 109.054 45.8167 109.354 44.15L109.829 41.625C109.146 41.6417 108.512 41.9083 107.929 42.425C107.346 42.925 106.879 43.5917 106.529 44.425C106.179 45.2583 106.004 46.1417 106.004 47.075C106.004 47.575 106.096 47.9583 106.279 48.225C106.479 48.475 106.737 48.6 107.054 48.6Z" fill="black"/>
<path d="M27.475 64.7C26.775 64.7 26.25 64.5417 25.9 64.225C25.55 63.8917 25.375 63.4333 25.375 62.85C25.375 62.2667 25.6 61.7833 26.05 61.4C26.5167 61 27.0917 60.8 27.775 60.8C28.3917 60.8 28.8917 60.95 29.275 61.25C29.6583 61.55 29.85 61.975 29.85 62.525C29.85 63.1917 29.6333 63.725 29.2 64.125C28.7667 64.5083 28.1917 64.7 27.475 64.7ZM27.275 78.125C26.1917 78.125 25.4 77.7417 24.9 76.975C24.4167 76.2083 24.175 75.1917 24.175 73.925C24.175 73.175 24.2667 72.2167 24.45 71.05C24.65 69.8667 24.9 68.7667 25.2 67.75C25.35 67.2167 25.55 66.85 25.8 66.65C26.05 66.45 26.45 66.35 27 66.35C27.85 66.35 28.275 66.6333 28.275 67.2C28.275 67.6167 28.1167 68.5833 27.8 70.1C27.4 71.9333 27.2 73.175 27.2 73.825C27.2 74.325 27.2667 74.7083 27.4 74.975C27.5333 75.2417 27.7583 75.375 28.075 75.375C28.375 75.375 28.75 75.1667 29.2 74.75C29.65 74.3333 30.25 73.675 31 72.775C31.2 72.5417 31.425 72.425 31.675 72.425C31.8917 72.425 32.0583 72.525 32.175 72.725C32.3083 72.925 32.375 73.2 32.375 73.55C32.375 74.2167 32.2167 74.7333 31.9 75.1C30.25 77.1167 28.7083 78.125 27.275 78.125ZM40.4523 69.775C40.819 69.775 41.1273 69.9083 41.3773 70.175C41.644 70.425 41.7773 70.7417 41.7773 71.125C41.7773 71.3417 41.7273 71.575 41.6273 71.825C41.3607 72.4417 40.9857 72.9583 40.5023 73.375C40.019 73.7917 39.4857 74 38.9023 74C38.4357 74 38.0357 73.8333 37.7023 73.5C37.3857 73.1667 37.2273 72.7167 37.2273 72.15C37.2273 71.8333 37.244 71.4917 37.2773 71.125C37.3107 70.8583 37.3273 70.675 37.3273 70.575C37.3273 70.4417 37.294 70.3417 37.2273 70.275C37.1773 70.2083 37.1107 70.175 37.0273 70.175C36.794 70.175 36.4773 70.4583 36.0773 71.025C35.6773 71.575 35.2773 72.3083 34.8773 73.225C34.4773 74.1417 34.1523 75.1083 33.9023 76.125C33.719 76.925 33.5107 77.4583 33.2773 77.725C33.044 77.9917 32.6607 78.125 32.1273 78.125C31.494 78.125 31.044 77.7917 30.7773 77.125C30.5273 76.4583 30.4023 75.3917 30.4023 73.925C30.4023 71.7583 30.7107 69.7 31.3273 67.75C31.4773 67.2667 31.719 66.9167 32.0523 66.7C32.4023 66.4667 32.8857 66.35 33.5023 66.35C33.8357 66.35 34.069 66.3917 34.2023 66.475C34.3357 66.5583 34.4023 66.7167 34.4023 66.95C34.4023 67.2167 34.2773 67.8167 34.0273 68.75C33.8607 69.4167 33.7273 70 33.6273 70.5C33.5273 71 33.444 71.6167 33.3773 72.35C33.9273 70.9167 34.544 69.75 35.2273 68.85C35.9107 67.95 36.5773 67.3083 37.2273 66.925C37.8773 66.5417 38.469 66.35 39.0023 66.35C39.4857 66.35 39.8523 66.4917 40.1023 66.775C40.369 67.0417 40.5023 67.4417 40.5023 67.975C40.5023 68.2917 40.4107 68.8917 40.2273 69.775H40.4523ZM46.7455 78.675C45.8788 78.675 45.2122 78.475 44.7455 78.075C44.2955 77.675 44.0705 77.225 44.0705 76.725C44.0705 76.2917 44.2288 75.9167 44.5455 75.6C44.8622 75.2833 45.3288 75.125 45.9455 75.125C46.1622 75.125 46.4122 75.15 46.6955 75.2C46.9955 75.2333 47.2205 75.2583 47.3705 75.275C47.3538 74.8417 47.2538 74.4333 47.0705 74.05C46.9038 73.6667 46.6872 73.3 46.4205 72.95C46.1538 72.5833 45.9038 72.2667 45.6705 72C45.1538 72.9833 44.6372 73.8 44.1205 74.45C43.6205 75.1 43.0705 75.7167 42.4705 76.3C42.1705 76.6 41.8538 76.75 41.5205 76.75C41.2538 76.75 41.0372 76.6583 40.8705 76.475C40.7038 76.275 40.6205 76.0333 40.6205 75.75C40.6205 75.4167 40.7372 75.1083 40.9705 74.825L41.2955 74.425C42.2122 73.2917 42.9038 72.3583 43.3705 71.625C43.6538 71.1417 43.9872 70.5 44.3705 69.7C44.7538 68.8833 45.1288 68.0417 45.4955 67.175C45.8122 66.4417 46.4705 66.075 47.4705 66.075C47.9372 66.075 48.2622 66.1167 48.4455 66.2C48.6288 66.2833 48.7205 66.4167 48.7205 66.6C48.7205 66.7 48.6872 66.8583 48.6205 67.075C48.5538 67.2917 48.4622 67.5083 48.3455 67.725C48.0455 68.325 47.8955 68.8333 47.8955 69.25C47.8955 69.5 47.9788 69.775 48.1455 70.075C48.3288 70.375 48.6038 70.75 48.9705 71.2C49.5038 71.9 49.9038 72.5 50.1705 73C50.4538 73.4833 50.5955 74.0167 50.5955 74.6C50.5955 74.7667 50.5788 75 50.5455 75.3C51.3622 74.9833 52.3205 74.1417 53.4205 72.775C53.6205 72.5417 53.8455 72.425 54.0955 72.425C54.3122 72.425 54.4788 72.525 54.5955 72.725C54.7288 72.925 54.7955 73.2 54.7955 73.55C54.7955 74.1833 54.6372 74.7 54.3205 75.1C53.4872 76.1333 52.6872 76.8417 51.9205 77.225C51.1705 77.5917 50.2372 77.7917 49.1205 77.825C48.4538 78.3917 47.6622 78.675 46.7455 78.675ZM56.8895 68.725C56.8561 69.5583 56.8395 70.2083 56.8395 70.675C56.8395 71.875 56.8978 72.8167 57.0145 73.5C57.1478 74.1667 57.3561 74.65 57.6395 74.95C57.9395 75.2333 58.3478 75.375 58.8645 75.375C59.1311 75.375 59.4478 75.2917 59.8145 75.125C60.1811 74.9583 60.5145 74.7417 60.8145 74.475C60.9978 74.3083 61.1811 74.225 61.3645 74.225C61.5645 74.225 61.7228 74.3417 61.8395 74.575C61.9728 74.7917 62.0395 75.0583 62.0395 75.375C62.0395 75.6917 61.9728 76 61.8395 76.3C61.7228 76.6 61.5395 76.85 61.2895 77.05C60.4228 77.7667 59.4395 78.125 58.3395 78.125C56.7561 78.125 55.5978 77.4667 54.8645 76.15C54.1311 74.8167 53.7645 73.0833 53.7645 70.95C53.7645 70.2167 53.7895 69.475 53.8395 68.725H52.8645C52.3645 68.725 52.0228 68.6333 51.8395 68.45C51.6728 68.2667 51.5895 67.975 51.5895 67.575C51.5895 66.6417 51.9645 66.175 52.7145 66.175H54.1395C54.4228 64.3417 54.8561 62.6667 55.4395 61.15C56.0228 59.6333 56.7228 58.425 57.5395 57.525C58.3728 56.625 59.2645 56.175 60.2145 56.175C60.9145 56.175 61.4645 56.4833 61.8645 57.1C62.2645 57.7167 62.4645 58.4917 62.4645 59.425C62.4645 62.0083 61.3811 64.2583 59.2145 66.175H62.0145C62.2811 66.175 62.4728 66.2333 62.5895 66.35C62.7061 66.4667 62.7645 66.6833 62.7645 67C62.7645 68.15 61.8228 68.725 59.9395 68.725H56.8895ZM59.5395 58.575C59.2895 58.575 59.0061 58.8917 58.6895 59.525C58.3895 60.1417 58.0978 61.0083 57.8145 62.125C57.5478 63.225 57.3228 64.45 57.1395 65.8C58.1228 64.95 58.8561 64 59.3395 62.95C59.8395 61.8833 60.0895 60.9167 60.0895 60.05C60.0895 59.0667 59.9061 58.575 59.5395 58.575Z" fill="black"/>
<g clip-path="url(#clip0_884_92)">
<path d="M85 51.3333C89.6025 51.3333 93.3334 47.6025 93.3334 43C93.3334 38.3975 89.6025 34.6667 85 34.6667C80.3975 34.6667 76.6667 38.3975 76.6667 43C76.6667 47.6025 80.3975 51.3333 85 51.3333Z" stroke="#EC3D3D" stroke-width="2" stroke-linecap="round" stroke-linejoin="round"/>
<path d="M80.4167 45.0833V40.9167L82.9167 42.1667L85 39.25L87.0834 42.1667L89.5834 40.9167V45.0833H80.4167Z" stroke="#EC3D3D" stroke-width="2" stroke-linecap="round" stroke-linejoin="round"/>
</g>
<defs>
<clipPath id="clip0_884_92">
<rect width="20" height="20" fill="white" transform="translate(75 33)"/>
</clipPath>
</defs>
</svg>
