<svg width="210" height="32" viewBox="0 0 210 32" fill="none" xmlns="http://www.w3.org/2000/svg">
<path d="M29.384 4.472C29.9813 4.55733 30.3867 4.73867 30.6 5.016C30.8347 5.29333 30.952 5.656 30.952 6.104C30.952 7.576 30.1627 8.25867 28.584 8.152L27.464 8.056C26.2053 7.94933 24.9467 7.864 23.688 7.8C22.4507 7.736 21.1493 7.704 19.784 7.704H18.344C18.088 10.8613 17.8213 13.7413 17.544 16.344L23.048 16.248C23.8373 16.248 24.36 16.3867 24.616 16.664C24.8933 16.9413 25.032 17.3147 25.032 17.784C25.032 18.5093 24.8187 19.0853 24.392 19.512C23.9653 19.9173 23.3573 20.12 22.568 20.12H17.096L16.904 21.496C16.456 25.016 15.496 27.5227 14.024 29.016C12.5733 30.5093 10.568 31.256 8.008 31.256C6.55733 31.256 5.224 30.9467 4.008 30.328C2.792 29.688 1.896 28.92 1.32 28.024C1.08533 27.6613 0.968 27.224 0.968 26.712C0.968 26.2 1.08533 25.752 1.32 25.368C1.576 24.984 1.88533 24.792 2.248 24.792C2.504 24.792 2.74933 24.8773 2.984 25.048C3.24 25.2187 3.56 25.5493 3.944 26.04C4.968 27.384 6.23733 28.056 7.752 28.056C8.968 28.056 9.98133 27.5653 10.792 26.584C11.624 25.5813 12.1573 24.0133 12.392 21.88L12.584 20.12H11.048C10.5573 20.12 10.1307 19.9813 9.768 19.704C9.42667 19.4267 9.256 19.032 9.256 18.52C9.256 17.8587 9.42667 17.3573 9.768 17.016C10.1093 16.6533 10.6107 16.472 11.272 16.472C11.8693 16.472 12.456 16.4613 13.032 16.44C13.288 14.0933 13.5653 11.2453 13.864 7.896C11.56 8.10933 9.93867 8.48267 9 9.016C8.06133 9.54933 7.592 10.3387 7.592 11.384C7.592 12.1093 7.80533 12.8027 8.232 13.464C8.36 13.656 8.424 13.848 8.424 14.04C8.424 14.424 8.21067 14.7653 7.784 15.064C7.35733 15.3413 6.87733 15.48 6.344 15.48C5.768 15.48 5.27733 15.3093 4.872 14.968C4.616 14.7547 4.37067 14.3173 4.136 13.656C3.90133 12.9947 3.784 12.2587 3.784 11.448C3.784 8.80267 5.13867 6.88267 7.848 5.688C10.5787 4.49333 14.5573 3.896 19.784 3.896C23.4107 3.896 26.6107 4.088 29.384 4.472ZM39.2768 23.864C39.5541 23.864 39.7674 23.992 39.9167 24.248C40.0874 24.504 40.1728 24.856 40.1728 25.304C40.1728 26.1573 39.9701 26.8187 39.5648 27.288C38.7754 28.248 37.6554 29.1333 36.2048 29.944C34.7754 30.7547 33.2394 31.16 31.5968 31.16C29.3568 31.16 27.6181 30.552 26.3808 29.336C25.1434 28.12 24.5247 26.456 24.5247 24.344C24.5247 22.872 24.8341 21.5067 25.4528 20.248C26.0714 18.968 26.9248 17.9547 28.0128 17.208C29.1221 16.4613 30.3701 16.088 31.7568 16.088C32.9941 16.088 33.9861 16.4613 34.7328 17.208C35.4794 17.9333 35.8528 18.9253 35.8528 20.184C35.8528 21.656 35.3194 22.9253 34.2528 23.992C33.2074 25.0373 31.4261 25.8693 28.9088 26.488C29.4421 27.4693 30.4554 27.96 31.9488 27.96C32.9088 27.96 33.9968 27.6293 35.2128 26.968C36.4501 26.2853 37.5168 25.4 38.4128 24.312C38.6688 24.0133 38.9568 23.864 39.2768 23.864ZM31.2128 19.224C30.4234 19.224 29.7514 19.6827 29.1968 20.6C28.6634 21.5173 28.3968 22.6267 28.3968 23.928V23.992C29.6554 23.6933 30.6474 23.2453 31.3728 22.648C32.0981 22.0507 32.4608 21.3573 32.4608 20.568C32.4608 20.1627 32.3434 19.8427 32.1088 19.608C31.8954 19.352 31.5968 19.224 31.2128 19.224ZM55.3273 23.864C55.6046 23.864 55.8179 23.992 55.9673 24.248C56.1379 24.504 56.2233 24.856 56.2233 25.304C56.2233 26.1573 56.0206 26.8187 55.6153 27.288C54.6339 28.4187 53.6206 29.3467 52.5753 30.072C51.5513 30.7973 50.3779 31.16 49.0553 31.16C47.9673 31.16 47.1459 30.8507 46.5913 30.232C46.0366 29.592 45.7593 28.6747 45.7593 27.48C45.7593 26.8827 45.9086 25.816 46.2073 24.28C46.4846 22.936 46.6233 22.008 46.6233 21.496C46.6233 21.1547 46.5059 20.984 46.2713 20.984C45.9939 20.984 45.5993 21.3467 45.0873 22.072C44.5753 22.776 44.0633 23.7147 43.5513 24.888C43.0393 26.0613 42.6233 27.2987 42.3033 28.6C41.8979 30.3067 40.8953 31.16 39.2953 31.16C38.6553 31.16 38.2286 30.936 38.0153 30.488C37.8233 30.0187 37.7273 29.1867 37.7273 27.992C37.7273 27.3093 37.7379 26.7653 37.7593 26.36L37.7913 23.8C37.7913 20.5147 38.1219 17.0907 38.7833 13.528C39.4659 9.96533 40.4579 6.97867 41.7593 4.568C43.0819 2.136 44.6606 0.919998 46.4953 0.919998C47.4766 0.919998 48.2659 1.34667 48.8633 2.2C49.4819 3.032 49.7913 4.12 49.7913 5.464C49.7913 7.61867 49.1619 9.85867 47.9033 12.184C46.6446 14.488 44.5966 17.1867 41.7593 20.28C41.6953 21.3893 41.6633 22.5307 41.6633 23.704C42.3673 21.8907 43.1459 20.4187 43.9993 19.288C44.8739 18.136 45.7273 17.3147 46.5593 16.824C47.4126 16.3333 48.1913 16.088 48.8953 16.088C50.2819 16.088 50.9753 16.7813 50.9753 18.168C50.9753 19 50.7406 20.504 50.2713 22.68C49.8659 24.536 49.6633 25.7627 49.6633 26.36C49.6633 27.2133 49.9726 27.64 50.5913 27.64C51.0179 27.64 51.5193 27.384 52.0953 26.872C52.6926 26.3387 53.4819 25.4853 54.4633 24.312C54.7193 24.0133 55.0073 23.864 55.3273 23.864ZM45.8233 4.088C45.4393 4.088 45.0126 4.64267 44.5433 5.752C44.0739 6.84 43.6153 8.32267 43.1673 10.2C42.7406 12.056 42.3886 14.0827 42.1113 16.28C43.4339 14.7227 44.5219 13.0267 45.3753 11.192C46.2499 9.35733 46.6873 7.69333 46.6873 6.2C46.6873 5.51733 46.6126 4.99467 46.4633 4.632C46.3139 4.26933 46.1006 4.088 45.8233 4.088ZM57.8218 13.976C56.9258 13.976 56.2538 13.7733 55.8058 13.368C55.3578 12.9413 55.1338 12.3547 55.1338 11.608C55.1338 10.8613 55.4218 10.2427 55.9978 9.752C56.5951 9.24 57.3311 8.984 58.2058 8.984C58.9951 8.984 59.6351 9.176 60.1258 9.56C60.6164 9.944 60.8618 10.488 60.8618 11.192C60.8618 12.0453 60.5844 12.728 60.0298 13.24C59.4751 13.7307 58.7391 13.976 57.8218 13.976ZM57.5658 31.16C56.1791 31.16 55.1658 30.6693 54.5258 29.688C53.9071 28.7067 53.5978 27.4053 53.5978 25.784C53.5978 24.824 53.7151 23.5973 53.9498 22.104C54.2058 20.5893 54.5258 19.1813 54.9098 17.88C55.1018 17.1973 55.3578 16.728 55.6778 16.472C55.9978 16.216 56.5098 16.088 57.2138 16.088C58.3018 16.088 58.8458 16.4507 58.8458 17.176C58.8458 17.7093 58.6431 18.9467 58.2378 20.888C57.7258 23.2347 57.4698 24.824 57.4698 25.656C57.4698 26.296 57.5551 26.7867 57.7258 27.128C57.8964 27.4693 58.1844 27.64 58.5898 27.64C58.9738 27.64 59.4538 27.3733 60.0298 26.84C60.6058 26.3067 61.3738 25.464 62.3338 24.312C62.5898 24.0133 62.8778 23.864 63.1978 23.864C63.4751 23.864 63.6884 23.992 63.8378 24.248C64.0084 24.504 64.0938 24.856 64.0938 25.304C64.0938 26.1573 63.8911 26.8187 63.4858 27.288C61.3738 29.8693 59.4004 31.16 57.5658 31.16ZM63.7768 31.16C62.9661 31.16 62.3901 30.7333 62.0488 29.88C61.7288 29.0267 61.5688 27.6613 61.5688 25.784C61.5688 23.0107 61.9634 20.376 62.7528 17.88C62.9448 17.2613 63.2541 16.8133 63.6808 16.536C64.1288 16.2373 64.7474 16.088 65.5368 16.088C65.9634 16.088 66.2621 16.1413 66.4328 16.248C66.6034 16.3547 66.6888 16.5573 66.6888 16.856C66.6888 17.1973 66.5288 17.9653 66.2088 19.16C65.9954 20.0133 65.8248 20.76 65.6968 21.4C65.5688 22.04 65.4621 22.8293 65.3768 23.768C66.0808 21.9333 66.8701 20.44 67.7448 19.288C68.6194 18.136 69.4728 17.3147 70.3048 16.824C71.1581 16.3333 71.9368 16.088 72.6408 16.088C74.0274 16.088 74.7208 16.7813 74.7208 18.168C74.7208 19 74.4861 20.504 74.0168 22.68C73.6114 24.536 73.4088 25.7627 73.4088 26.36C73.4088 27.2133 73.7181 27.64 74.3368 27.64C74.7634 27.64 75.2648 27.384 75.8408 26.872C76.4381 26.3387 77.2274 25.4853 78.2088 24.312C78.4648 24.0133 78.7528 23.864 79.0728 23.864C79.3501 23.864 79.5634 23.992 79.7128 24.248C79.8834 24.504 79.9688 24.856 79.9688 25.304C79.9688 26.1573 79.7661 26.8187 79.3608 27.288C78.4434 28.4187 77.4514 29.3467 76.3848 30.072C75.3394 30.7973 74.1448 31.16 72.8008 31.16C71.7128 31.16 70.8914 30.8507 70.3368 30.232C69.7821 29.592 69.5048 28.6747 69.5048 27.48C69.5048 26.8827 69.6541 25.816 69.9528 24.28C70.2301 22.936 70.3688 22.008 70.3688 21.496C70.3688 21.1547 70.2514 20.984 70.0168 20.984C69.7394 20.984 69.3448 21.3467 68.8328 22.072C68.3421 22.776 67.8301 23.7147 67.2968 24.888C66.7848 26.0613 66.3688 27.2987 66.0488 28.6C65.8141 29.6027 65.5368 30.2853 65.2168 30.648C64.9181 30.9893 64.4381 31.16 63.7768 31.16ZM91.6518 23.864C91.9291 23.864 92.1424 23.992 92.2917 24.248C92.4624 24.504 92.5478 24.856 92.5478 25.304C92.5478 26.1573 92.3451 26.8187 91.9398 27.288C91.0224 28.4187 90.0198 29.3467 88.9318 30.072C87.8438 30.7973 86.5958 31.16 85.1878 31.16C80.8358 31.16 78.6598 28.0987 78.6598 21.976C78.6598 21.0373 78.6918 20.088 78.7558 19.128H77.5078C76.8678 19.128 76.4304 19.0107 76.1958 18.776C75.9824 18.5413 75.8758 18.168 75.8758 17.656C75.8758 16.4613 76.3558 15.864 77.3158 15.864H79.1398C79.5024 13.5173 80.0571 11.3733 80.8038 9.432C81.5504 7.49067 82.4464 5.944 83.4918 4.792C84.5584 3.64 85.6998 3.064 86.9158 3.064C87.8118 3.064 88.5158 3.45867 89.0278 4.248C89.5398 5.03733 89.7958 6.02933 89.7958 7.224C89.7958 10.5307 88.4091 13.4107 85.6358 15.864H89.2198C89.5611 15.864 89.8064 15.9387 89.9558 16.088C90.1051 16.2373 90.1798 16.5147 90.1798 16.92C90.1798 18.392 88.9744 19.128 86.5638 19.128H82.6598C82.6171 20.1947 82.5958 21.0267 82.5958 21.624C82.5958 23.8427 82.8518 25.4 83.3638 26.296C83.8971 27.192 84.7291 27.64 85.8598 27.64C86.7771 27.64 87.5878 27.3627 88.2918 26.808C88.9958 26.2533 89.8278 25.4213 90.7878 24.312C91.0438 24.0133 91.3318 23.864 91.6518 23.864ZM86.0518 6.136C85.7318 6.136 85.3691 6.54133 84.9638 7.352C84.5798 8.14133 84.2064 9.25067 83.8438 10.68C83.5024 12.088 83.2144 13.656 82.9798 15.384C84.2384 14.296 85.1771 13.08 85.7958 11.736C86.4358 10.3707 86.7558 9.13333 86.7558 8.024C86.7558 6.76533 86.5211 6.136 86.0518 6.136ZM106.262 21.176C106.54 21.176 106.753 21.3147 106.902 21.592C107.052 21.8693 107.126 22.2213 107.126 22.648C107.126 23.672 106.817 24.28 106.198 24.472C104.918 24.92 103.51 25.176 101.974 25.24C101.569 27.032 100.769 28.472 99.5743 29.56C98.3796 30.6267 97.0249 31.16 95.5103 31.16C94.2303 31.16 93.1316 30.8507 92.2143 30.232C91.3183 29.6133 90.6356 28.792 90.1663 27.768C89.6969 26.744 89.4622 25.6347 89.4622 24.44C89.4622 22.8187 89.7716 21.3787 90.3903 20.12C91.0089 18.84 91.8623 17.848 92.9503 17.144C94.0383 16.4187 95.2436 16.056 96.5663 16.056C98.1876 16.056 99.4889 16.6213 100.47 17.752C101.473 18.8613 102.06 20.2373 102.23 21.88C103.233 21.816 104.428 21.6027 105.814 21.24C105.985 21.1973 106.134 21.176 106.262 21.176ZM95.7663 27.768C96.4489 27.768 97.0356 27.4907 97.5263 26.936C98.0383 26.3813 98.3796 25.5813 98.5503 24.536C97.8889 24.088 97.3769 23.5013 97.0143 22.776C96.6729 22.0507 96.5023 21.2827 96.5023 20.472C96.5023 20.1307 96.5343 19.7893 96.5983 19.448H96.4383C95.5849 19.448 94.8703 19.864 94.2943 20.696C93.7396 21.5067 93.4623 22.6587 93.4623 24.152C93.4623 25.3253 93.6863 26.2213 94.1343 26.84C94.6036 27.4587 95.1476 27.768 95.7663 27.768ZM116.508 23.864C116.785 23.864 116.998 23.992 117.148 24.248C117.318 24.504 117.404 24.856 117.404 25.304C117.404 26.1573 117.201 26.8187 116.796 27.288C115.878 28.4187 114.876 29.3467 113.788 30.072C112.721 30.7973 111.505 31.16 110.14 31.16C108.262 31.16 106.865 30.3067 105.948 28.6C105.052 26.8933 104.604 24.6853 104.604 21.976C104.604 19.3733 104.934 16.408 105.596 13.08C106.278 9.752 107.27 6.89333 108.572 4.504C109.894 2.11466 111.462 0.919998 113.276 0.919998C114.3 0.919998 115.1 1.4 115.676 2.36C116.273 3.29867 116.572 4.65333 116.572 6.424C116.572 8.96267 115.868 11.9067 114.46 15.256C113.052 18.6053 111.142 21.9227 108.732 25.208C108.881 26.0827 109.126 26.712 109.468 27.096C109.809 27.4587 110.257 27.64 110.812 27.64C111.686 27.64 112.454 27.3947 113.116 26.904C113.777 26.392 114.62 25.528 115.644 24.312C115.9 24.0133 116.188 23.864 116.508 23.864ZM112.572 4.088C112.081 4.088 111.526 4.97333 110.908 6.744C110.289 8.51467 109.745 10.712 109.276 13.336C108.806 15.96 108.55 18.4773 108.508 20.888C110.022 18.392 111.228 15.896 112.124 13.4C113.02 10.8827 113.468 8.58933 113.468 6.52C113.468 4.89867 113.169 4.088 112.572 4.088ZM118.185 31.16C116.969 31.16 115.977 30.68 115.209 29.72C114.462 28.76 114.089 27.5013 114.089 25.944C114.089 24.2373 114.483 22.6267 115.273 21.112C116.062 19.576 117.107 18.3493 118.409 17.432C119.731 16.4933 121.129 16.024 122.601 16.024C123.07 16.024 123.379 16.12 123.529 16.312C123.699 16.4827 123.838 16.8027 123.945 17.272C124.35 17.1867 124.798 17.144 125.289 17.144C125.801 17.144 126.195 17.272 126.473 17.528C126.75 17.784 126.889 18.1467 126.889 18.616C126.889 19.1067 126.782 19.96 126.569 21.176C126.334 22.4773 126.153 23.7253 126.025 24.92C125.897 26.0933 125.833 27.416 125.833 28.888C125.833 29.6987 125.662 30.2853 125.321 30.648C125.001 30.9893 124.467 31.16 123.721 31.16C122.995 31.16 122.451 30.9893 122.089 30.648C121.747 30.2853 121.577 29.7093 121.577 28.92L121.609 28.408C120.947 30.2427 119.806 31.16 118.185 31.16ZM119.433 27.928C120.03 27.928 120.574 27.512 121.065 26.68C121.555 25.848 121.993 24.3653 122.377 22.232L122.985 19C122.11 19.0213 121.299 19.3627 120.553 20.024C119.806 20.664 119.209 21.5173 118.761 22.584C118.313 23.6507 118.089 24.7813 118.089 25.976C118.089 26.616 118.206 27.1067 118.441 27.448C118.697 27.768 119.027 27.928 119.433 27.928ZM164.478 4.472C165.075 4.55733 165.48 4.73867 165.694 5.016C165.928 5.29333 166.046 5.656 166.046 6.104C166.046 7.576 165.256 8.25867 163.678 8.152L162.558 8.056C161.299 7.94933 160.04 7.864 158.782 7.8C157.544 7.736 156.243 7.704 154.878 7.704H153.438C153.182 10.8613 152.915 13.7413 152.638 16.344L158.142 16.248C158.931 16.248 159.454 16.3867 159.71 16.664C159.987 16.9413 160.126 17.3147 160.126 17.784C160.126 18.5093 159.912 19.0853 159.486 19.512C159.059 19.9173 158.451 20.12 157.662 20.12H152.19L151.998 21.496C151.55 25.016 150.59 27.5227 149.118 29.016C147.667 30.5093 145.662 31.256 143.102 31.256C141.651 31.256 140.318 30.9467 139.102 30.328C137.886 29.688 136.99 28.92 136.414 28.024C136.179 27.6613 136.062 27.224 136.062 26.712C136.062 26.2 136.179 25.752 136.414 25.368C136.67 24.984 136.979 24.792 137.342 24.792C137.598 24.792 137.843 24.8773 138.078 25.048C138.334 25.2187 138.654 25.5493 139.038 26.04C140.062 27.384 141.331 28.056 142.846 28.056C144.062 28.056 145.075 27.5653 145.886 26.584C146.718 25.5813 147.251 24.0133 147.486 21.88L147.678 20.12H146.142C145.651 20.12 145.224 19.9813 144.862 19.704C144.52 19.4267 144.35 19.032 144.35 18.52C144.35 17.8587 144.52 17.3573 144.862 17.016C145.203 16.6533 145.704 16.472 146.366 16.472C146.963 16.472 147.55 16.4613 148.126 16.44C148.382 14.0933 148.659 11.2453 148.958 7.896C146.654 8.10933 145.032 8.48267 144.094 9.016C143.155 9.54933 142.686 10.3387 142.686 11.384C142.686 12.1093 142.899 12.8027 143.326 13.464C143.454 13.656 143.518 13.848 143.518 14.04C143.518 14.424 143.304 14.7653 142.878 15.064C142.451 15.3413 141.971 15.48 141.438 15.48C140.862 15.48 140.371 15.3093 139.966 14.968C139.71 14.7547 139.464 14.3173 139.23 13.656C138.995 12.9947 138.878 12.2587 138.878 11.448C138.878 8.80267 140.232 6.88267 142.942 5.688C145.672 4.49333 149.651 3.896 154.878 3.896C158.504 3.896 161.704 4.088 164.478 4.472ZM164.603 13.976C163.707 13.976 163.035 13.7733 162.587 13.368C162.139 12.9413 161.915 12.3547 161.915 11.608C161.915 10.8613 162.203 10.2427 162.779 9.752C163.376 9.24 164.112 8.984 164.987 8.984C165.776 8.984 166.416 9.176 166.907 9.56C167.398 9.944 167.643 10.488 167.643 11.192C167.643 12.0453 167.366 12.728 166.811 13.24C166.256 13.7307 165.52 13.976 164.603 13.976ZM164.347 31.16C162.96 31.16 161.947 30.6693 161.307 29.688C160.688 28.7067 160.379 27.4053 160.379 25.784C160.379 24.824 160.496 23.5973 160.731 22.104C160.987 20.5893 161.307 19.1813 161.691 17.88C161.883 17.1973 162.139 16.728 162.459 16.472C162.779 16.216 163.291 16.088 163.995 16.088C165.083 16.088 165.627 16.4507 165.627 17.176C165.627 17.7093 165.424 18.9467 165.019 20.888C164.507 23.2347 164.251 24.824 164.251 25.656C164.251 26.296 164.336 26.7867 164.507 27.128C164.678 27.4693 164.966 27.64 165.371 27.64C165.755 27.64 166.235 27.3733 166.811 26.84C167.387 26.3067 168.155 25.464 169.115 24.312C169.371 24.0133 169.659 23.864 169.979 23.864C170.256 23.864 170.47 23.992 170.619 24.248C170.79 24.504 170.875 24.856 170.875 25.304C170.875 26.1573 170.672 26.8187 170.267 27.288C168.155 29.8693 166.182 31.16 164.347 31.16ZM181.214 20.472C181.683 20.472 182.078 20.6427 182.398 20.984C182.739 21.304 182.91 21.7093 182.91 22.2C182.91 22.4773 182.846 22.776 182.718 23.096C182.377 23.8853 181.897 24.5467 181.278 25.08C180.659 25.6133 179.977 25.88 179.23 25.88C178.633 25.88 178.121 25.6667 177.694 25.24C177.289 24.8133 177.086 24.2373 177.086 23.512C177.086 23.1067 177.107 22.6693 177.15 22.2C177.193 21.8587 177.214 21.624 177.214 21.496C177.214 21.3253 177.171 21.1973 177.086 21.112C177.022 21.0267 176.937 20.984 176.83 20.984C176.531 20.984 176.126 21.3467 175.614 22.072C175.102 22.776 174.59 23.7147 174.078 24.888C173.566 26.0613 173.15 27.2987 172.83 28.6C172.595 29.624 172.329 30.3067 172.03 30.648C171.731 30.9893 171.241 31.16 170.558 31.16C169.747 31.16 169.171 30.7333 168.83 29.88C168.51 29.0267 168.35 27.6613 168.35 25.784C168.35 23.0107 168.745 20.376 169.534 17.88C169.726 17.2613 170.035 16.8133 170.462 16.536C170.91 16.2373 171.529 16.088 172.318 16.088C172.745 16.088 173.043 16.1413 173.214 16.248C173.385 16.3547 173.47 16.5573 173.47 16.856C173.47 17.1973 173.31 17.9653 172.99 19.16C172.777 20.0133 172.606 20.76 172.478 21.4C172.35 22.04 172.243 22.8293 172.158 23.768C172.862 21.9333 173.651 20.44 174.526 19.288C175.401 18.136 176.254 17.3147 177.086 16.824C177.918 16.3333 178.675 16.088 179.358 16.088C179.977 16.088 180.446 16.2693 180.766 16.632C181.107 16.9733 181.278 17.4853 181.278 18.168C181.278 18.5733 181.161 19.3413 180.926 20.472H181.214ZM189.269 31.864C188.16 31.864 187.307 31.608 186.709 31.096C186.133 30.584 185.845 30.008 185.845 29.368C185.845 28.8133 186.048 28.3333 186.453 27.928C186.859 27.5227 187.456 27.32 188.245 27.32C188.523 27.32 188.843 27.352 189.205 27.416C189.589 27.4587 189.877 27.4907 190.069 27.512C190.048 26.9573 189.92 26.4347 189.685 25.944C189.472 25.4533 189.195 24.984 188.853 24.536C188.512 24.0667 188.192 23.6613 187.893 23.32C187.232 24.5787 186.571 25.624 185.909 26.456C185.269 27.288 184.565 28.0773 183.797 28.824C183.413 29.208 183.008 29.4 182.581 29.4C182.24 29.4 181.963 29.2827 181.749 29.048C181.536 28.792 181.429 28.4827 181.429 28.12C181.429 27.6933 181.579 27.2987 181.877 26.936L182.293 26.424C183.467 24.9733 184.352 23.7787 184.949 22.84C185.312 22.2213 185.739 21.4 186.229 20.376C186.72 19.3307 187.2 18.2533 187.669 17.144C188.075 16.2053 188.917 15.736 190.197 15.736C190.795 15.736 191.211 15.7893 191.445 15.896C191.68 16.0027 191.797 16.1733 191.797 16.408C191.797 16.536 191.755 16.7387 191.669 17.016C191.584 17.2933 191.467 17.5707 191.317 17.848C190.933 18.616 190.741 19.2667 190.741 19.8C190.741 20.12 190.848 20.472 191.061 20.856C191.296 21.24 191.648 21.72 192.117 22.296C192.8 23.192 193.312 23.96 193.653 24.6C194.016 25.2187 194.197 25.9013 194.197 26.648C194.197 26.8613 194.176 27.16 194.133 27.544C195.179 27.1387 196.405 26.0613 197.813 24.312C198.069 24.0133 198.357 23.864 198.677 23.864C198.955 23.864 199.168 23.992 199.317 24.248C199.488 24.504 199.573 24.856 199.573 25.304C199.573 26.1147 199.371 26.776 198.965 27.288C197.899 28.6107 196.875 29.5173 195.893 30.008C194.933 30.4773 193.739 30.7333 192.309 30.776C191.456 31.5013 190.443 31.864 189.269 31.864ZM202.254 19.128C202.211 20.1947 202.19 21.0267 202.19 21.624C202.19 23.16 202.264 24.3653 202.414 25.24C202.584 26.0933 202.851 26.712 203.214 27.096C203.598 27.4587 204.12 27.64 204.782 27.64C205.123 27.64 205.528 27.5333 205.998 27.32C206.467 27.1067 206.894 26.8293 207.278 26.488C207.512 26.2747 207.747 26.168 207.982 26.168C208.238 26.168 208.44 26.3173 208.59 26.616C208.76 26.8933 208.846 27.2347 208.846 27.64C208.846 28.0453 208.76 28.44 208.59 28.824C208.44 29.208 208.206 29.528 207.886 29.784C206.776 30.7013 205.518 31.16 204.11 31.16C202.083 31.16 200.6 30.3173 199.661 28.632C198.723 26.9253 198.254 24.7067 198.254 21.976C198.254 21.0373 198.286 20.088 198.35 19.128H197.102C196.462 19.128 196.024 19.0107 195.79 18.776C195.576 18.5413 195.47 18.168 195.47 17.656C195.47 16.4613 195.95 15.864 196.91 15.864H198.734C199.096 13.5173 199.651 11.3733 200.398 9.432C201.144 7.49067 202.04 5.944 203.086 4.792C204.152 3.64 205.294 3.064 206.51 3.064C207.406 3.064 208.11 3.45867 208.622 4.248C209.134 5.03733 209.39 6.02933 209.39 7.224C209.39 10.5307 208.003 13.4107 205.23 15.864H208.814C209.155 15.864 209.4 15.9387 209.55 16.088C209.699 16.2373 209.774 16.5147 209.774 16.92C209.774 18.392 208.568 19.128 206.158 19.128H202.254ZM205.646 6.136C205.326 6.136 204.963 6.54133 204.558 7.352C204.174 8.14133 203.8 9.25067 203.438 10.68C203.096 12.088 202.808 13.656 202.574 15.384C203.832 14.296 204.771 13.08 205.39 11.736C206.03 10.3707 206.35 9.13333 206.35 8.024C206.35 6.76533 206.115 6.136 205.646 6.136Z" fill="black"/>
</svg>
