<svg width="67" height="67" viewBox="0 0 67 67" fill="none" xmlns="http://www.w3.org/2000/svg">
<rect width="67" height="67" fill=""/>
<path d="M13.9583 15.3541C13.9583 12.7628 14.9877 10.2775 16.8201 8.44512C18.6525 6.61274 21.1378 5.58331 23.7291 5.58331H33.5V25.125H23.7291C21.1378 25.125 18.6525 24.0956 16.8201 22.2632C14.9877 20.4308 13.9583 17.9455 13.9583 15.3541Z" stroke="#EC3D3D" stroke-width="2" stroke-linecap="round" stroke-linejoin="round"/>
<path d="M33.5 5.58331H43.2708C44.554 5.58331 45.8245 5.83604 47.01 6.32707C48.1954 6.8181 49.2726 7.53782 50.1799 8.44512C51.0872 9.35243 51.8069 10.4296 52.2979 11.615C52.7889 12.8005 53.0417 14.071 53.0417 15.3541C53.0417 16.6373 52.7889 17.9078 52.2979 19.0933C51.8069 20.2787 51.0872 21.3559 50.1799 22.2632C49.2726 23.1705 48.1954 23.8902 47.01 24.3812C45.8245 24.8722 44.554 25.125 43.2708 25.125H33.5V5.58331Z" stroke="#EC3D3D" stroke-width="2" stroke-linecap="round" stroke-linejoin="round"/>
<path d="M33.5 34.8958C33.5 33.6127 33.7527 32.3421 34.2438 31.1567C34.7348 29.9712 35.4545 28.8941 36.3618 27.9868C37.2691 27.0795 38.3462 26.3598 39.5317 25.8688C40.7171 25.3777 41.9877 25.125 43.2708 25.125C44.554 25.125 45.8245 25.3777 47.01 25.8688C48.1954 26.3598 49.2726 27.0795 50.1799 27.9868C51.0872 28.8941 51.8069 29.9712 52.2979 31.1567C52.7889 32.3421 53.0417 33.6127 53.0417 34.8958C53.0417 36.179 52.7889 37.4495 52.2979 38.635C51.8069 39.8204 51.0872 40.8975 50.1799 41.8049C49.2726 42.7122 48.1954 43.4319 47.01 43.9229C45.8245 44.4139 44.554 44.6667 43.2708 44.6667C41.9877 44.6667 40.7171 44.4139 39.5317 43.9229C38.3462 43.4319 37.2691 42.7122 36.3618 41.8049C35.4545 40.8975 34.7348 39.8204 34.2438 38.635C33.7527 37.4495 33.5 36.179 33.5 34.8958V34.8958Z" stroke="#EC3D3D" stroke-width="2" stroke-linecap="round" stroke-linejoin="round"/>
<path d="M13.9583 54.4375C13.9583 51.8461 14.9877 49.3609 16.8201 47.5285C18.6525 45.6961 21.1378 44.6667 23.7291 44.6667H33.5V54.4375C33.5 57.0289 32.4706 59.5141 30.6382 61.3465C28.8058 63.1789 26.3205 64.2083 23.7291 64.2083C21.1378 64.2083 18.6525 63.1789 16.8201 61.3465C14.9877 59.5141 13.9583 57.0289 13.9583 54.4375Z" stroke="#EC3D3D" stroke-width="2" stroke-linecap="round" stroke-linejoin="round"/>
<path d="M13.9583 34.8958C13.9583 32.3044 14.9877 29.8192 16.8201 27.9868C18.6525 26.1544 21.1378 25.125 23.7291 25.125H33.5V44.6667H23.7291C21.1378 44.6667 18.6525 43.6372 16.8201 41.8049C14.9877 39.9725 13.9583 37.4872 13.9583 34.8958Z" stroke="#EC3D3D" stroke-width="2" stroke-linecap="round" stroke-linejoin="round"/>
</svg>
