<svg width="45" height="45" viewBox="0 0 45 45" fill="none" xmlns="http://www.w3.org/2000/svg">
<g clip-path="url(#clip0_59_41)">
<path d="M31.25 5H13.75C13.087 5 12.4511 5.26339 11.9822 5.73223C11.5134 6.20107 11.25 6.83696 11.25 7.5V37.5C11.25 38.163 11.5134 38.7989 11.9822 39.2678C12.4511 39.7366 13.087 40 13.75 40H31.25C31.913 40 32.5489 39.7366 33.0178 39.2678C33.4866 38.7989 33.75 38.163 33.75 37.5V7.5C33.75 6.83696 33.4866 6.20107 33.0178 5.73223C32.5489 5.26339 31.913 5 31.25 5ZM13.75 7.5H31.25V30H13.75V7.5ZM13.75 37.5V32.5H31.25V37.5H13.75Z" fill="#9E9DA0"/>
<path d="M21.25 33.75H23.75V36.25H21.25V33.75Z" fill="black"/>
</g>
<defs>
<clipPath id="clip0_59_41">
<rect width="45" height="45" fill="white"/>
</clipPath>
</defs>
</svg>
