<svg width="219" height="34" viewBox="0 0 219 34" fill="none" xmlns="http://www.w3.org/2000/svg">
<path d="M20.2891 1.99219C20.3672 2.22656 20.4062 2.38281 20.4062 2.46094C20.4583 2.53906 20.5495 2.65625 20.6797 2.8125C20.8359 2.94271 20.9531 3.00781 21.0312 3.00781C21.3438 3.00781 21.513 3.02083 21.5391 3.04688C21.5911 3.07292 21.6432 3.09896 21.6953 3.125C21.6953 3.41146 21.7083 3.56771 21.7344 3.59375C21.7604 3.61979 21.7865 3.65885 21.8125 3.71094C21.8125 3.8151 21.7865 3.9974 21.7344 4.25781C21.6823 4.46615 21.5911 4.67448 21.4609 4.88281C21.3307 5.09115 21.2005 5.29948 21.0703 5.50781C20.9401 5.71615 20.7969 5.91146 20.6406 6.09375C20.5104 6.27604 20.3802 6.45833 20.25 6.64062C20.1198 6.82292 20.0286 7.00521 19.9766 7.1875C19.9245 7.34375 19.7943 7.5 19.5859 7.65625C19.4036 7.78646 19.2214 7.91667 19.0391 8.04688C18.8568 8.17708 18.6875 8.32031 18.5312 8.47656L18.0625 9.0625C18.0104 9.19271 17.9323 9.3099 17.8281 9.41406C17.75 9.49219 17.6849 9.58333 17.6328 9.6875C17.4766 9.92188 17.3464 10.1562 17.2422 10.3906C17.1641 10.625 16.9948 10.8333 16.7344 11.0156C16.3698 11.6667 15.9531 12.2656 15.4844 12.8125C15.0156 13.3594 14.5729 13.9453 14.1562 14.5703C14.4427 14.5964 14.7292 14.5964 15.0156 14.5703C15.3281 14.5182 15.6667 14.4792 16.0312 14.4531C16.8125 14.401 17.5417 14.362 18.2188 14.3359C18.8958 14.3099 19.5729 14.2969 20.25 14.2969C20.4583 14.4531 20.5234 14.6484 20.4453 14.8828C20.3151 14.8828 20.2109 14.9219 20.1328 15C20.0807 15.0521 19.9896 15.0521 19.8594 15C19.7552 15.0521 19.6901 15.1172 19.6641 15.1953C19.638 15.2734 19.599 15.3385 19.5469 15.3906C19.3906 15.8594 19.0391 16.1068 18.4922 16.1328C17.9714 16.1328 17.4896 16.1589 17.0469 16.2109C16.7604 16.237 16.6042 16.263 16.5781 16.2891C16.5781 16.2891 16.5651 16.2891 16.5391 16.2891C16.0703 16.3411 15.5885 16.4062 15.0938 16.4844C14.625 16.5365 14.1562 16.5885 13.6875 16.6406C13.5573 16.7448 13.401 16.7839 13.2188 16.7578C13.0625 16.7057 12.9193 16.7057 12.7891 16.7578C12.7109 16.8099 12.6589 16.875 12.6328 16.9531C12.6068 17.0312 12.5677 17.1094 12.5156 17.1875C12.3854 17.3698 12.2682 17.5391 12.1641 17.6953C12.0599 17.8516 11.9427 18.0208 11.8125 18.2031C11.6823 18.3333 11.5521 18.4766 11.4219 18.6328C11.3177 18.7891 11.2135 18.9583 11.1094 19.1406C11.0052 19.2188 10.9141 19.3099 10.8359 19.4141C10.7839 19.5182 10.7188 19.6224 10.6406 19.7266C10.4323 20.013 10.2109 20.3125 9.97656 20.625C9.74219 20.9115 9.50781 21.1979 9.27344 21.4844C9.14323 21.7188 9 21.9531 8.84375 22.1875C8.71354 22.3958 8.57031 22.6302 8.41406 22.8906C8.33594 23.0469 8.25781 23.2161 8.17969 23.3984C8.1276 23.5547 8.07552 23.7109 8.02344 23.8672C7.94531 24.0755 7.85417 24.2578 7.75 24.4141C7.67188 24.5443 7.60677 24.7005 7.55469 24.8828C7.42448 25.0911 7.29427 25.3125 7.16406 25.5469C7.03385 25.7812 6.90365 26.0286 6.77344 26.2891C6.4349 26.8099 6.07031 27.3698 5.67969 27.9688C5.3151 28.5417 4.96354 29.1406 4.625 29.7656C4.52083 29.9219 4.42969 30.0781 4.35156 30.2344C4.27344 30.4167 4.16927 30.5729 4.03906 30.7031C3.96094 30.8073 3.86979 30.8854 3.76562 30.9375C3.6875 30.9896 3.60938 31.0417 3.53125 31.0938C3.32292 31.25 3.07552 31.4193 2.78906 31.6016C2.5026 31.7839 2.25521 31.9401 2.04688 32.0703C1.76042 32.1745 1.5651 32.3047 1.46094 32.4609C1.35677 32.6172 1.27865 32.7865 1.22656 32.9688C0.835938 33.151 0.5625 33.151 0.40625 32.9688C0.25 32.7865 0.184896 32.6172 0.210938 32.4609C0.210938 32.3568 0.276042 32.2135 0.40625 32.0312C0.5625 31.849 0.666667 31.7057 0.71875 31.6016L1.10938 31.0156C1.1875 30.8073 1.23958 30.6641 1.26562 30.5859C1.31771 30.5078 1.36979 30.4297 1.42188 30.3516C1.47396 30.2474 1.51302 30.1693 1.53906 30.1172C1.59115 30.0651 1.61719 29.987 1.61719 29.8828C1.7474 29.7266 1.85156 29.5703 1.92969 29.4141C2.00781 29.2318 2.09896 29.0495 2.20312 28.8672C2.41146 28.6589 2.59375 28.4115 2.75 28.125C2.90625 27.8385 3.10156 27.5781 3.33594 27.3438C3.38802 27.1875 3.45312 27.0573 3.53125 26.9531C3.60938 26.849 3.70052 26.7448 3.80469 26.6406C3.96094 26.3281 4.13021 26.0286 4.3125 25.7422C4.49479 25.4297 4.61198 25.0651 4.66406 24.6484C4.76823 24.2318 4.89844 23.9193 5.05469 23.7109C5.21094 23.5026 5.35417 23.2812 5.48438 23.0469C5.53646 22.8646 5.58854 22.6953 5.64062 22.5391C5.69271 22.3828 5.78385 22.2396 5.91406 22.1094C6.07031 21.849 6.20052 21.6146 6.30469 21.4062C6.40885 21.1979 6.52604 20.9635 6.65625 20.7031C6.78646 20.3385 6.98177 19.974 7.24219 19.6094C7.29427 19.5312 7.34635 19.4661 7.39844 19.4141C7.45052 19.3359 7.5026 19.2448 7.55469 19.1406C7.65885 18.9844 7.73698 18.8151 7.78906 18.6328C7.86719 18.4505 7.95833 18.2812 8.0625 18.125C8.14062 17.9948 8.21875 17.8906 8.29688 17.8125C8.40104 17.7083 8.45312 17.5521 8.45312 17.3438C8.21875 17.2917 8.01042 17.3177 7.82812 17.4219C7.51562 17.4479 7.15104 17.5 6.73438 17.5781C6.34375 17.6302 5.9401 17.6562 5.52344 17.6562C5.39323 17.6562 5.23698 17.6693 5.05469 17.6953C4.89844 17.6953 4.74219 17.7083 4.58594 17.7344C4.45573 17.7865 4.32552 17.8516 4.19531 17.9297C4.0651 17.9818 3.9349 17.9427 3.80469 17.8125C3.70052 17.6562 3.6224 17.5781 3.57031 17.5781C3.54427 17.5521 3.51823 17.513 3.49219 17.4609C3.36198 17.2005 3.21875 16.9922 3.0625 16.8359C3.01042 16.7578 2.97135 16.6927 2.94531 16.6406C2.94531 16.5625 2.89323 16.4974 2.78906 16.4453C2.71094 16.3672 2.63281 16.224 2.55469 16.0156C2.8151 15.6771 3.16667 15.5078 3.60938 15.5078C4.75521 15.2474 5.88802 15.0651 7.00781 14.9609C8.1276 14.8568 9.23438 14.7266 10.3281 14.5703C10.4062 14.5182 10.4583 14.4531 10.4844 14.375C10.5365 14.2708 10.5885 14.1797 10.6406 14.1016C10.7708 13.9453 10.901 13.8021 11.0312 13.6719C11.1875 13.5156 11.3047 13.3333 11.3828 13.125C11.487 13.0729 11.5521 13.0078 11.5781 12.9297C11.6042 12.8516 11.6562 12.7865 11.7344 12.7344C11.8385 12.6042 11.8906 12.487 11.8906 12.3828C11.9167 12.2786 11.9557 12.2005 12.0078 12.1484C12.2943 11.7578 12.4896 11.4844 12.5938 11.3281C12.6979 11.1458 12.8151 10.9635 12.9453 10.7812C13.0755 10.599 13.2057 10.4427 13.3359 10.3125C13.4661 10.1562 13.5964 10 13.7266 9.84375C13.8307 9.71354 13.9219 9.60938 14 9.53125C14.0781 9.42708 14.1562 9.32292 14.2344 9.21875C14.4427 8.85417 14.7161 8.47656 15.0547 8.08594C15.3411 7.7474 15.5755 7.38281 15.7578 6.99219C15.9141 6.96615 16.0052 6.90104 16.0312 6.79688C16.0833 6.66667 16.1615 6.5625 16.2656 6.48438C16.3958 6.17188 16.5521 5.89844 16.7344 5.66406C16.9167 5.40365 17.0729 5.11719 17.2031 4.80469C17.0729 4.77865 16.9167 4.80469 16.7344 4.88281C16.5521 4.96094 16.3568 5 16.1484 5C15.888 5.05208 15.6797 5.10417 15.5234 5.15625C15.3672 5.20833 15.1849 5.26042 14.9766 5.3125C14.5859 5.36458 14.1693 5.48177 13.7266 5.66406C13.3099 5.84635 12.9062 5.98958 12.5156 6.09375C11.526 6.19792 10.5885 6.30208 9.70312 6.40625C8.81771 6.51042 7.91927 6.60156 7.00781 6.67969C6.79948 6.70573 6.59115 6.73177 6.38281 6.75781C6.17448 6.78385 5.96615 6.79688 5.75781 6.79688C5.34115 6.79688 4.92448 6.83594 4.50781 6.91406C4.3776 6.88802 4.26042 6.88802 4.15625 6.91406C4.05208 6.9401 3.9349 6.9401 3.80469 6.91406C3.49219 6.8099 3.29688 6.73177 3.21875 6.67969C3.14062 6.6276 3.03646 6.60156 2.90625 6.60156C2.80208 6.54948 2.72396 6.4974 2.67188 6.44531C2.61979 6.39323 2.56771 6.36719 2.51562 6.36719C2.33333 6.13281 2.22917 5.98958 2.20312 5.9375C2.17708 5.85938 2.25521 5.76823 2.4375 5.66406C2.54167 5.40365 2.75 5.2474 3.0625 5.19531C3.40104 5.14323 3.67448 5.0651 3.88281 4.96094C4.2474 4.88281 4.59896 4.81771 4.9375 4.76562C5.30208 4.6875 5.67969 4.60938 6.07031 4.53125C6.48698 4.40104 6.8125 4.33594 7.04688 4.33594C7.28125 4.3099 7.5026 4.24479 7.71094 4.14062C8.10156 4.11458 8.46615 4.0625 8.80469 3.98438C9.16927 3.88021 9.53385 3.78906 9.89844 3.71094C10.0026 3.65885 10.1068 3.63281 10.2109 3.63281C10.3411 3.60677 10.4453 3.55469 10.5234 3.47656C10.8099 3.47656 10.9531 3.45052 10.9531 3.39844C12.2812 3.13802 13.5703 2.83854 14.8203 2.5C16.0703 2.16146 17.3854 1.92708 18.7656 1.79688C19.0521 1.77083 19.3255 1.78385 19.5859 1.83594C19.8724 1.86198 20.1068 1.91406 20.2891 1.99219ZM22.3984 18.8672C22.2161 19.1016 22.0339 19.3229 21.8516 19.5312C21.6693 19.7396 21.4609 19.9349 21.2266 20.1172C21.0703 20.4036 20.888 20.6641 20.6797 20.8984C20.4714 21.1328 20.263 21.3542 20.0547 21.5625C19.9505 21.7708 19.8333 21.9401 19.7031 22.0703C19.5729 22.1745 19.4297 22.2917 19.2734 22.4219C19.1953 22.5521 19.0911 22.6823 18.9609 22.8125C18.8568 22.9427 18.7526 23.0729 18.6484 23.2031C18.5703 23.3333 18.5052 23.4766 18.4531 23.6328C18.401 23.7891 18.4141 23.9583 18.4922 24.1406C18.7786 24.1927 19.0651 24.1536 19.3516 24.0234C19.638 23.8932 19.8854 23.776 20.0938 23.6719C20.3021 23.5417 20.5104 23.4375 20.7188 23.3594C20.9531 23.2552 21.1615 23.138 21.3438 23.0078L22.3594 21.9922C22.5417 21.8359 22.6979 21.6667 22.8281 21.4844C22.9583 21.3021 23.1016 21.1068 23.2578 20.8984C23.3099 20.638 23.4141 20.3776 23.5703 20.1172C23.7266 19.8307 23.7917 19.5573 23.7656 19.2969C23.7396 19.1406 23.6875 19.0104 23.6094 18.9062C23.5573 18.776 23.5182 18.6458 23.4922 18.5156C23.2318 18.5156 23.0234 18.5677 22.8672 18.6719C22.737 18.75 22.5807 18.8151 22.3984 18.8672ZM16.1094 21.3672C16.1615 21.3411 16.2656 21.237 16.4219 21.0547C16.6042 20.8464 16.7995 20.625 17.0078 20.3906C17.2161 20.1302 17.4115 19.9089 17.5938 19.7266C17.776 19.5182 17.9062 19.401 17.9844 19.375C18.0625 19.2448 18.1276 19.1406 18.1797 19.0625C18.2578 18.9583 18.362 18.8672 18.4922 18.7891C18.7005 18.3984 18.974 18.0859 19.3125 17.8516C19.651 17.5911 19.9766 17.2917 20.2891 16.9531C20.7839 16.7448 21.2786 16.4844 21.7734 16.1719C22.2943 15.8333 22.8672 15.651 23.4922 15.625C23.7786 15.7552 24.0521 15.7943 24.3125 15.7422C24.599 15.6901 24.8594 15.7552 25.0938 15.9375C25.224 16.1719 25.3411 16.3281 25.4453 16.4062C25.5495 16.4583 25.6276 16.5234 25.6797 16.6016C25.7839 16.9401 25.862 17.1615 25.9141 17.2656C25.9661 17.3438 26.0052 17.4479 26.0312 17.5781C26.0573 17.9688 26.0833 18.2552 26.1094 18.4375C26.1354 18.5938 26.1354 18.75 26.1094 18.9062C26.0312 19.6094 25.901 20.2734 25.7188 20.8984C25.6667 21.0547 25.6146 21.224 25.5625 21.4062C25.5104 21.5625 25.4453 21.7057 25.3672 21.8359C25.1849 22.0703 25.0417 22.2786 24.9375 22.4609C24.8594 22.6172 24.7812 22.7474 24.7031 22.8516C24.3906 23.1641 24.1172 23.4245 23.8828 23.6328C23.6484 23.763 23.4141 23.9062 23.1797 24.0625C22.9453 24.2188 22.6849 24.3229 22.3984 24.375C22.2682 24.4531 22.151 24.5312 22.0469 24.6094C21.9427 24.6615 21.8125 24.7005 21.6562 24.7266C21.3958 24.9089 21.1354 25.0521 20.875 25.1562C20.6146 25.2344 20.3411 25.3385 20.0547 25.4688C19.8984 25.5208 19.7292 25.612 19.5469 25.7422C19.3646 25.8724 19.1823 25.9766 19 26.0547C18.8438 26.1068 18.6484 26.1589 18.4141 26.2109C18.2057 26.237 18.0365 26.276 17.9062 26.3281C18.0365 26.6146 18.0885 26.9401 18.0625 27.3047C18.0365 27.6693 18.1016 27.9948 18.2578 28.2812C18.5964 28.3594 18.9609 28.4245 19.3516 28.4766C19.7682 28.5026 20.1589 28.4896 20.5234 28.4375C20.6536 28.4115 20.7969 28.3724 20.9531 28.3203C21.1094 28.2422 21.2656 28.1901 21.4219 28.1641C21.7083 28.112 21.9818 28.0469 22.2422 27.9688C22.5286 27.8906 22.776 27.7865 22.9844 27.6562C23.7396 27.3958 24.4688 27.0443 25.1719 26.6016C25.875 26.1589 26.487 25.6771 27.0078 25.1562C27.3203 24.9479 27.6589 24.6615 28.0234 24.2969C28.4141 23.9323 28.7135 23.5938 28.9219 23.2812C29.3125 22.8646 29.651 22.5391 29.9375 22.3047C30.25 22.0703 30.5365 21.9661 30.7969 21.9922C31.0052 21.9922 31.2005 22.1224 31.3828 22.3828C31.5911 22.6172 31.5781 22.8776 31.3438 23.1641C31.0833 23.3203 30.8099 23.5547 30.5234 23.8672C30.237 24.1797 29.9375 24.401 29.625 24.5312C29.3906 24.6875 29.0911 24.974 28.7266 25.3906C28.388 25.8073 28.1016 26.1198 27.8672 26.3281C27.763 26.4323 27.6198 26.5625 27.4375 26.7188C27.2812 26.849 27.151 26.9792 27.0469 27.1094C26.6823 27.4219 26.2917 27.7083 25.875 27.9688C25.7188 27.9167 25.6016 27.9427 25.5234 28.0469C25.4453 28.151 25.3411 28.2552 25.2109 28.3594C25.1328 28.4115 25.0417 28.4635 24.9375 28.5156C24.8594 28.5677 24.7812 28.6198 24.7031 28.6719C24.4948 28.8542 24.2604 29.0365 24 29.2188C23.7656 29.401 23.5182 29.5573 23.2578 29.6875C22.737 30 22.2161 30.2604 21.6953 30.4688C21.1745 30.7031 20.6667 30.9896 20.1719 31.3281C20.0156 31.3542 19.8724 31.3672 19.7422 31.3672C19.612 31.3932 19.4818 31.4193 19.3516 31.4453C19.1953 31.4974 19.0521 31.5234 18.9219 31.5234C18.8177 31.5234 18.6615 31.4974 18.4531 31.4453C17.9844 31.3151 17.5938 31.1589 17.2812 30.9766C16.9688 30.7943 16.6562 30.5339 16.3438 30.1953C16.1875 30.0391 16.0182 29.8958 15.8359 29.7656C15.6536 29.6354 15.5104 29.4922 15.4062 29.3359C15.3281 29.2057 15.237 28.9974 15.1328 28.7109C15.0286 28.4245 14.9375 28.125 14.8594 27.8125C14.7812 27.474 14.7161 27.1484 14.6641 26.8359C14.612 26.5234 14.5859 26.2891 14.5859 26.1328C14.638 26.0286 14.7031 25.8464 14.7812 25.5859C14.8333 25.3255 14.8984 25.0521 14.9766 24.7656C15.0286 24.4531 15.0807 24.1667 15.1328 23.9062C15.1589 23.6458 15.1719 23.4635 15.1719 23.3594C15.1979 23.3333 15.263 23.2292 15.3672 23.0469C15.4714 22.8385 15.5885 22.6172 15.7188 22.3828C15.8229 22.1484 15.9141 21.9401 15.9922 21.7578C16.0703 21.5495 16.1094 21.4193 16.1094 21.3672ZM30.6016 27.0312C31.2005 26.5104 31.7474 25.9505 32.2422 25.3516C32.763 24.7266 33.3229 24.1016 33.9219 23.4766C34.0521 23.3464 34.1823 23.1901 34.3125 23.0078C34.4427 22.8255 34.5729 22.6302 34.7031 22.4219C34.8073 22.2656 34.9375 22.1224 35.0938 21.9922C35.25 21.8359 35.3802 21.6927 35.4844 21.5625C35.5625 21.4323 35.6536 21.3281 35.7578 21.25C35.888 21.1719 36.0182 21.0807 36.1484 20.9766C36.2786 20.8464 36.3958 20.7422 36.5 20.6641C36.6042 20.5599 36.7214 20.4557 36.8516 20.3516C37.0859 20.1693 37.3073 19.987 37.5156 19.8047C37.724 19.5964 37.9714 19.4271 38.2578 19.2969C38.4141 19.2708 38.5312 19.2188 38.6094 19.1406C38.6875 19.0365 38.7786 18.9323 38.8828 18.8281C39.013 18.8542 39.1302 18.8411 39.2344 18.7891C39.3385 18.737 39.4557 18.6849 39.5859 18.6328C39.9505 18.7109 40.237 18.8542 40.4453 19.0625C40.6797 19.2708 40.901 19.4792 41.1094 19.6875C41.2917 19.7656 41.4349 19.8438 41.5391 19.9219C41.6432 19.974 41.7474 20.0391 41.8516 20.1172C41.9557 20.3255 42.0469 20.5208 42.125 20.7031C42.2031 20.8854 42.2422 21.0938 42.2422 21.3281C42.2422 21.4844 42.2292 21.6406 42.2031 21.7969C42.1771 21.9531 42.151 22.1094 42.125 22.2656C42.0208 22.5781 41.9818 22.7474 42.0078 22.7734C42.0339 22.7995 42.0469 22.8385 42.0469 22.8906C42.0729 23.099 41.9948 23.3203 41.8125 23.5547C41.6562 23.763 41.6172 23.9844 41.6953 24.2188C41.7214 24.2969 41.6823 24.4922 41.5781 24.8047C41.5 25.1172 41.474 25.3125 41.5 25.3906C41.5521 25.5469 41.5781 25.7552 41.5781 26.0156C41.5781 26.25 41.6432 26.4193 41.7734 26.5234C42.0339 26.6276 42.2161 26.6797 42.3203 26.6797C42.4245 26.6797 42.5156 26.6797 42.5938 26.6797C42.9062 26.5234 43.2969 26.263 43.7656 25.8984C44.2344 25.5078 44.5859 25.1823 44.8203 24.9219C45.0807 24.7135 45.3151 24.5182 45.5234 24.3359C45.7318 24.1276 46.0182 23.9323 46.3828 23.75C46.6953 23.5417 46.9036 23.3854 47.0078 23.2812C47.112 23.151 47.2812 22.9557 47.5156 22.6953C47.5938 22.6172 47.6849 22.5391 47.7891 22.4609C47.9193 22.3828 48.0365 22.2917 48.1406 22.1875C48.2188 22.1094 48.3229 22.0312 48.4531 21.9531C48.5833 21.849 48.6875 21.7839 48.7656 21.7578C48.8698 21.7578 49.013 21.7578 49.1953 21.7578C49.4036 21.7578 49.5339 21.8099 49.5859 21.9141C49.638 22.1224 49.638 22.3047 49.5859 22.4609C49.5339 22.6172 49.4688 22.7604 49.3906 22.8906C49.2865 23.0469 49.1693 23.1901 49.0391 23.3203C48.9349 23.5026 48.8177 23.6719 48.6875 23.8281C48.5573 23.9583 48.4141 24.1146 48.2578 24.2969C48.1016 24.4531 47.9193 24.5833 47.7109 24.6875C47.5807 24.8438 47.4505 24.987 47.3203 25.1172C47.2161 25.2214 47.099 25.3385 46.9688 25.4688C46.8385 25.599 46.7214 25.7422 46.6172 25.8984C46.513 26.0547 46.3958 26.1979 46.2656 26.3281C45.9792 26.5625 45.6927 26.7969 45.4062 27.0312C45.1458 27.2396 44.8984 27.487 44.6641 27.7734C44.5339 27.8255 44.4297 27.8906 44.3516 27.9688C44.2734 28.0208 44.1823 28.0729 44.0781 28.125C43.8177 28.2031 43.5703 28.3333 43.3359 28.5156C43.1016 28.6979 42.8542 28.8932 42.5938 29.1016C42.3594 29.2839 42.112 29.4531 41.8516 29.6094C41.5911 29.7656 41.3047 29.8307 40.9922 29.8047C40.7057 29.9349 40.4583 29.9479 40.25 29.8438C40.0417 29.7135 39.8333 29.5833 39.625 29.4531C39.3385 29.2708 39.0651 29.0625 38.8047 28.8281C38.5443 28.5938 38.388 28.2682 38.3359 27.8516C38.2839 27.1745 38.362 26.5365 38.5703 25.9375C38.7786 25.3385 38.9349 24.7396 39.0391 24.1406C39.0391 24.0885 39.0521 23.9974 39.0781 23.8672C39.1302 23.7109 39.1562 23.5547 39.1562 23.3984C39.1823 23.2161 39.1953 23.0599 39.1953 22.9297C39.2214 22.7734 39.2214 22.6693 39.1953 22.6172C39.1432 22.5651 39.1042 22.474 39.0781 22.3438C39.0781 22.2135 38.974 22.0833 38.7656 21.9531C38.6354 21.875 38.5833 21.862 38.6094 21.9141C38.6354 21.9661 38.5312 21.9922 38.2969 21.9922C38.0885 22.0703 37.9062 22.1745 37.75 22.3047C37.5938 22.4349 37.4245 22.5651 37.2422 22.6953C36.9818 22.9818 36.6823 23.2422 36.3438 23.4766C36.0312 23.7109 35.7578 23.9844 35.5234 24.2969C35.3151 24.5312 35.1198 24.7656 34.9375 25C34.7552 25.2344 34.5469 25.4688 34.3125 25.7031C33.974 26.0938 33.6224 26.4844 33.2578 26.875C32.8932 27.2656 32.5286 27.6432 32.1641 28.0078C31.9818 28.2161 31.8125 28.4245 31.6562 28.6328C31.5 28.8411 31.3307 29.0495 31.1484 29.2578C30.8359 29.6484 30.4974 30.026 30.1328 30.3906C29.9766 30.651 29.7552 30.8984 29.4688 31.1328C29.1823 31.3672 28.8958 31.5365 28.6094 31.6406C28.5312 31.5885 28.4531 31.5885 28.375 31.6406C28.2708 31.6927 28.1797 31.7188 28.1016 31.7188C27.7891 31.5885 27.6068 31.5104 27.5547 31.4844C27.5026 31.4844 27.4635 31.4323 27.4375 31.3281C27.1771 31.1719 27.0859 30.9115 27.1641 30.5469C27.2161 30.2083 27.2682 29.9089 27.3203 29.6484C27.5807 28.4766 27.9453 27.3177 28.4141 26.1719C28.8568 25 29.2083 23.8542 29.4688 22.7344C29.599 22.2917 29.7292 21.888 29.8594 21.5234C29.9896 21.1328 30.1458 20.7292 30.3281 20.3125C30.5104 19.9479 30.6276 19.5833 30.6797 19.2188C30.7578 18.8281 30.888 18.4505 31.0703 18.0859C31.1745 17.9036 31.2656 17.7083 31.3438 17.5C31.4219 17.2917 31.5 17.0964 31.5781 16.9141C31.8646 16.3932 32.138 15.7552 32.3984 15C32.6589 14.2188 32.9323 13.5286 33.2188 12.9297C33.5312 12.0964 33.8568 11.2891 34.1953 10.5078C34.5339 9.72656 34.9115 8.95833 35.3281 8.20312C35.4583 7.68229 35.6146 7.20052 35.7969 6.75781C36.0052 6.28906 36.2526 5.83333 36.5391 5.39062C36.7995 5.05208 36.9688 4.77865 37.0469 4.57031C37.151 4.36198 37.2682 4.16667 37.3984 3.98438C37.7109 3.61979 38.0625 3.33333 38.4531 3.125C38.8438 2.89062 39.1823 2.59115 39.4688 2.22656C39.6771 2.1224 39.8724 2.04427 40.0547 1.99219C40.263 1.9401 40.4583 1.875 40.6406 1.79688C40.6927 1.84896 40.7188 1.92708 40.7188 2.03125C40.7448 2.10938 40.7578 2.1875 40.7578 2.26562C40.8099 2.26562 40.8229 2.34375 40.7969 2.5C40.7708 2.65625 40.7708 2.78646 40.7969 2.89062C40.7969 3.28125 40.7578 3.54167 40.6797 3.67188C40.6276 3.80208 40.5755 3.94531 40.5234 4.10156C40.4974 4.25781 40.4844 4.40104 40.4844 4.53125C40.4844 4.63542 40.4714 4.73958 40.4453 4.84375C40.3672 5.07812 40.3281 5.22135 40.3281 5.27344C40.3542 5.29948 40.3672 5.33854 40.3672 5.39062C40.3672 5.49479 40.3542 5.61198 40.3281 5.74219C40.3021 5.8724 40.2891 6.0026 40.2891 6.13281C40.263 6.41927 40.1849 6.71875 40.0547 7.03125C39.9505 7.34375 39.8594 7.63021 39.7812 7.89062C39.625 8.07292 39.5339 8.21615 39.5078 8.32031C39.4818 8.42448 39.4297 8.48958 39.3516 8.51562C39.1953 8.95833 39.0521 9.38802 38.9219 9.80469C38.7917 10.2214 38.5964 10.612 38.3359 10.9766C38.2318 11.263 38.0885 11.5495 37.9062 11.8359C37.75 12.0964 37.6068 12.3568 37.4766 12.6172C37.4245 12.7474 37.3594 12.8776 37.2812 13.0078C37.2292 13.112 37.1771 13.2292 37.125 13.3594C36.9427 13.6979 36.7474 14.0495 36.5391 14.4141C36.3568 14.7526 36.1354 15.0651 35.875 15.3516C35.4062 16.3411 34.9115 17.3438 34.3906 18.3594C33.8698 19.349 33.362 20.3125 32.8672 21.25C32.6849 21.5365 32.5547 21.7839 32.4766 21.9922C32.3984 22.1745 32.3464 22.3438 32.3203 22.5C32.3203 22.6302 32.2552 22.7604 32.125 22.8906C32.0469 23.125 31.9688 23.3464 31.8906 23.5547C31.8385 23.763 31.7474 23.9583 31.6172 24.1406C31.513 24.6875 31.3438 25.1823 31.1094 25.625C30.901 26.0417 30.7318 26.5104 30.6016 27.0312ZM56.2266 10.5469C56.2786 10.625 56.3047 10.7031 56.3047 10.7812C56.3047 10.8594 56.3438 10.9245 56.4219 10.9766C56.3698 11.2109 56.3177 11.4583 56.2656 11.7188C56.2396 11.9531 56.2266 12.1875 56.2266 12.4219C56.2266 12.526 56.2526 12.6172 56.3047 12.6953C56.3828 12.7734 56.4219 12.8516 56.4219 12.9297C56.2917 13.2422 56.1875 13.4245 56.1094 13.4766C56.0573 13.5286 56.0312 13.5938 56.0312 13.6719C55.901 13.724 55.7969 13.8021 55.7188 13.9062C55.6667 14.0104 55.5625 14.0625 55.4062 14.0625C55.3542 14.1406 55.2891 14.2057 55.2109 14.2578C55.1589 14.2839 55.1198 14.349 55.0938 14.4531C54.6771 14.6354 54.2083 14.6224 53.6875 14.4141C53.5573 14.1797 53.375 14.0104 53.1406 13.9062C52.8021 13.4115 52.7891 12.8255 53.1016 12.1484C53.1536 12.0182 53.2057 11.888 53.2578 11.7578C53.3359 11.6016 53.401 11.4974 53.4531 11.4453C53.7396 11.237 53.9479 11.1068 54.0781 11.0547C54.1823 11.0026 54.2865 10.9375 54.3906 10.8594C54.5208 10.7812 54.6641 10.7161 54.8203 10.6641C54.8724 10.638 54.9375 10.625 55.0156 10.625C55.1198 10.625 55.224 10.599 55.3281 10.5469C55.4323 10.5208 55.5234 10.4948 55.6016 10.4688C55.6797 10.4427 55.7578 10.4297 55.8359 10.4297L56.2266 10.5469ZM50.1719 27.8125C50.4062 27.7083 50.6927 27.6693 51.0312 27.6953C51.3698 27.7214 51.6432 27.6693 51.8516 27.5391C51.9557 27.4609 52.0469 27.3828 52.125 27.3047C52.2031 27.2266 52.2943 27.2005 52.3984 27.2266C52.8151 27.0703 53.1667 26.9141 53.4531 26.7578C53.7396 26.6016 54.0521 26.4844 54.3906 26.4062C54.4688 26.3802 54.5599 26.3281 54.6641 26.25C54.7943 26.1719 54.8854 26.1068 54.9375 26.0547C55.3542 25.9245 55.6536 25.7943 55.8359 25.6641C56.0182 25.5339 56.1875 25.4036 56.3438 25.2734C56.526 25.1432 56.6953 25.013 56.8516 24.8828C57.0339 24.7266 57.2552 24.5443 57.5156 24.3359C57.8802 24.1276 58.1797 23.9453 58.4141 23.7891C58.6745 23.6328 58.9479 23.4375 59.2344 23.2031C59.2865 23.0729 59.3516 22.9818 59.4297 22.9297C59.5339 22.8516 59.612 22.7604 59.6641 22.6562C60.1328 22.6562 60.3932 22.8385 60.4453 23.2031C60.3151 23.4896 60.1328 23.724 59.8984 23.9062C59.6901 24.0885 59.4948 24.2969 59.3125 24.5312C59.1042 24.6615 58.9349 24.7786 58.8047 24.8828C58.6745 24.987 58.5443 25.1432 58.4141 25.3516C58.388 25.3516 58.3099 25.4167 58.1797 25.5469C58.0495 25.651 57.9714 25.7031 57.9453 25.7031C57.7891 25.8854 57.6719 26.0026 57.5938 26.0547C57.5417 26.1068 57.4896 26.1458 57.4375 26.1719C57.4115 26.1719 57.3594 26.1979 57.2812 26.25C57.2292 26.3021 57.112 26.4062 56.9297 26.5625C56.7474 26.849 56.513 27.0833 56.2266 27.2656C55.6797 27.7865 55.0807 28.2422 54.4297 28.6328C53.8047 28.9974 53.2318 29.362 52.7109 29.7266C52.6068 29.7786 52.5156 29.8568 52.4375 29.9609C52.3594 30.0391 52.2682 30.1172 52.1641 30.1953C52.0339 30.2995 51.8255 30.4036 51.5391 30.5078C51.2786 30.612 51.0443 30.7031 50.8359 30.7812C50.6797 30.8854 50.5365 30.9635 50.4062 31.0156C49.8333 31.0417 49.3906 30.9505 49.0781 30.7422C48.7396 30.5599 48.4792 30.4167 48.2969 30.3125C48.1146 30.2083 47.9583 30.0391 47.8281 29.8047C47.5417 29.6745 47.3594 29.4401 47.2812 29.1016C47.2292 28.737 47.1641 28.3854 47.0859 28.0469C47.0599 27.9167 47.0339 27.7734 47.0078 27.6172C46.9818 27.4349 46.9818 27.2526 47.0078 27.0703C47.0599 26.7839 47.099 26.4844 47.125 26.1719C47.151 25.8333 47.2161 25.5469 47.3203 25.3125C47.4505 25.026 47.5156 24.7396 47.5156 24.4531C47.5417 24.1667 47.6198 23.8802 47.75 23.5938C47.9062 23.3333 47.9714 23.1901 47.9453 23.1641C47.9453 23.138 47.9583 23.099 47.9844 23.0469C48.0365 22.9688 48.0885 22.8906 48.1406 22.8125C48.2188 22.7344 48.2839 22.6432 48.3359 22.5391L48.5703 21.9531C48.6745 21.7708 48.7917 21.5885 48.9219 21.4062C49.0521 21.224 49.1562 21.0026 49.2344 20.7422C49.2865 20.5859 49.3516 20.4427 49.4297 20.3125C49.5339 20.1823 49.638 20.0391 49.7422 19.8828C49.8203 19.7266 49.8854 19.5703 49.9375 19.4141C49.9896 19.2318 50.0547 19.0495 50.1328 18.8672C50.2109 18.6589 50.3021 18.4505 50.4062 18.2422C50.5365 18.0339 50.6667 17.8255 50.7969 17.6172C50.901 17.4089 50.9922 17.2526 51.0703 17.1484C51.1484 17.0443 51.3047 16.9792 51.5391 16.9531C51.6432 16.9271 51.7604 16.9401 51.8906 16.9922C52.0208 17.0182 52.151 17.0052 52.2812 16.9531C52.6198 16.7969 52.8542 16.7188 52.9844 16.7188C53.1146 16.7188 53.2057 16.6797 53.2578 16.6016C53.5443 16.6276 53.7526 16.7188 53.8828 16.875C54.013 17.0312 54.1693 17.1875 54.3516 17.3438C54.1953 18.099 54.013 18.6849 53.8047 19.1016C53.6224 19.4922 53.4141 19.9089 53.1797 20.3516C53.0495 20.5599 52.9193 20.7943 52.7891 21.0547C52.6589 21.3151 52.5417 21.5495 52.4375 21.7578C52.3073 22.0443 52.1641 22.3047 52.0078 22.5391C51.8776 22.7474 51.7604 22.9948 51.6562 23.2812C51.6042 23.4115 51.5391 23.5417 51.4609 23.6719C51.4089 23.776 51.3568 23.8932 51.3047 24.0234C51.2526 24.2057 51.1745 24.375 51.0703 24.5312C50.9922 24.6615 50.9141 24.7917 50.8359 24.9219C50.7578 25.0781 50.6797 25.2344 50.6016 25.3906C50.5234 25.5469 50.4583 25.7161 50.4062 25.8984C50.276 26.2109 50.1979 26.4062 50.1719 26.4844C50.1458 26.5365 50.1198 26.5885 50.0938 26.6406C50.0417 26.9271 49.9635 27.1615 49.8594 27.3438C49.7552 27.526 49.7943 27.6562 49.9766 27.7344L50.1719 27.8125ZM60.7578 25.1953C60.9661 25.0651 61.1354 24.8958 61.2656 24.6875C61.3958 24.4792 61.5521 24.2708 61.7344 24.0625C62.0729 23.6719 62.4375 23.3464 62.8281 23.0859C63.0104 22.8255 63.2318 22.6302 63.4922 22.5C63.7786 22.3438 64 22.1224 64.1562 21.8359C64.2083 21.7578 64.2474 21.6797 64.2734 21.6016C64.3255 21.5234 64.3776 21.4453 64.4297 21.3672C64.8984 20.7161 65.4323 20.1432 66.0312 19.6484C66.1875 19.5182 66.3307 19.388 66.4609 19.2578C66.6172 19.1276 66.7995 18.9974 67.0078 18.8672C67.2422 18.737 67.4635 18.5677 67.6719 18.3594C67.9062 18.151 68.1536 17.9948 68.4141 17.8906C68.5964 17.8125 68.7656 17.7604 68.9219 17.7344C69.0781 17.6823 69.2474 17.6302 69.4297 17.5781C69.612 17.526 69.7682 17.487 69.8984 17.4609C70.0547 17.4089 70.224 17.4089 70.4062 17.4609C70.8229 17.6432 71.1354 17.9948 71.3438 18.5156C71.3958 18.6458 71.3698 18.9323 71.2656 19.375C71.1875 19.7917 71.0703 20.2604 70.9141 20.7812C70.7839 21.276 70.6406 21.7578 70.4844 22.2266C70.3281 22.6953 70.224 23.0339 70.1719 23.2422C70.1198 23.4505 70.1068 23.5677 70.1328 23.5938C70.1589 23.5938 70.1719 23.6198 70.1719 23.6719C70.1198 23.8021 70.0807 23.9193 70.0547 24.0234C70.0286 24.1276 70.0026 24.2448 69.9766 24.375C69.9245 24.5833 69.8854 24.8698 69.8594 25.2344C69.8333 25.5729 69.8464 25.8464 69.8984 26.0547C70.1849 26.0286 70.3281 26.0026 70.3281 25.9766C70.3542 25.9505 70.3932 25.9375 70.4453 25.9375C70.5234 25.9115 70.6016 25.9115 70.6797 25.9375C70.7839 25.9375 70.875 25.9245 70.9531 25.8984C71.2396 25.8203 71.5 25.7161 71.7344 25.5859C71.9688 25.4297 72.1901 25.2474 72.3984 25.0391C72.8672 24.8307 73.2969 24.6224 73.6875 24.4141C74.0521 24.1536 74.3385 23.9714 74.5469 23.8672C74.7812 23.737 75.1198 23.5677 75.5625 23.3594C75.7188 23.1771 75.9401 23.0208 76.2266 22.8906C76.5391 22.7344 76.7995 22.5651 77.0078 22.3828C77.0599 22.3307 77.125 22.2656 77.2031 22.1875C77.2812 22.0833 77.3594 22.0573 77.4375 22.1094C77.5677 22.2396 77.6458 22.3828 77.6719 22.5391C77.724 22.6693 77.737 22.7604 77.7109 22.8125C77.5026 23.0208 77.3854 23.1771 77.3594 23.2812C77.3594 23.3854 77.3333 23.4635 77.2812 23.5156C77.151 23.6458 76.9557 23.763 76.6953 23.8672C76.4609 23.9714 76.3177 24.0625 76.2656 24.1406C76.2396 24.1927 76.2005 24.2448 76.1484 24.2969C76.0964 24.349 76.0182 24.4141 75.9141 24.4922C75.8359 24.5443 75.7708 24.5964 75.7188 24.6484C75.6667 24.7266 75.5885 24.7786 75.4844 24.8047C75.4062 24.8047 75.3281 24.8177 75.25 24.8438C75.0938 24.974 74.9635 25.0911 74.8594 25.1953C74.7552 25.2995 74.638 25.4167 74.5078 25.5469C74.2995 25.7552 74.1693 25.9115 74.1172 26.0156C74.0651 26.0938 73.9219 26.2109 73.6875 26.3672C73.5573 26.4453 73.4271 26.5234 73.2969 26.6016C73.1667 26.6797 73.0365 26.7578 72.9062 26.8359C72.5417 27.0182 72.1771 27.2396 71.8125 27.5C71.4479 27.7604 71.0833 28.0208 70.7188 28.2812C70.4583 28.4375 70.1849 28.5807 69.8984 28.7109C69.638 28.8151 69.3906 28.9453 69.1562 29.1016C69.0521 29.1016 68.974 29.1016 68.9219 29.1016C68.8958 29.0755 68.8307 29.0885 68.7266 29.1406C68.5964 29.0625 68.4661 29.0625 68.3359 29.1406C68.2057 29.1927 68.0755 29.1927 67.9453 29.1406C67.6849 28.9323 67.5026 28.8021 67.3984 28.75C67.3203 28.6979 67.2552 28.6328 67.2031 28.5547C67.151 28.4245 67.125 28.2812 67.125 28.125C67.151 27.9688 67.125 27.8385 67.0469 27.7344C67.0469 27.1615 67.0599 26.6146 67.0859 26.0938C67.138 25.5729 67.2292 25.026 67.3594 24.4531C67.3854 24.2708 67.4375 24.0234 67.5156 23.7109C67.5938 23.3724 67.6589 23.0469 67.7109 22.7344C67.763 22.4219 67.8021 22.1484 67.8281 21.9141C67.8542 21.6797 67.8281 21.5365 67.75 21.4844C67.4635 21.6406 67.1641 21.875 66.8516 22.1875C66.5651 22.5 66.2917 22.7604 66.0312 22.9688C65.8229 23.125 65.6146 23.2682 65.4062 23.3984C65.224 23.5286 65.0286 23.6719 64.8203 23.8281C64.638 23.9583 64.4818 24.0885 64.3516 24.2188C64.2214 24.349 64.0781 24.5052 63.9219 24.6875C63.7396 24.8698 63.5703 25.0521 63.4141 25.2344C63.2578 25.3906 63.0755 25.5469 62.8672 25.7031C62.763 25.8073 62.6589 25.8984 62.5547 25.9766C62.4766 26.0286 62.3984 26.0938 62.3203 26.1719C62.1901 26.3021 62.0599 26.4323 61.9297 26.5625C61.8255 26.6667 61.6823 26.7578 61.5 26.8359C61.3438 27.0443 61.1354 27.2786 60.875 27.5391C60.6406 27.7995 60.3932 28.0859 60.1328 28.3984C59.8984 28.6849 59.6641 28.9714 59.4297 29.2578C59.1953 29.5443 59.013 29.8047 58.8828 30.0391C58.5703 30.2995 58.2318 30.5208 57.8672 30.7031C57.5286 30.9115 57.112 30.9375 56.6172 30.7812C56.3568 30.625 56.1875 30.4948 56.1094 30.3906C56.0312 30.2865 55.9401 30.2083 55.8359 30.1562C55.862 29.8698 55.888 29.5964 55.9141 29.3359C55.9401 29.0755 56.0182 28.8021 56.1484 28.5156C56.1745 28.4635 56.2135 28.4115 56.2656 28.3594C56.2917 28.2812 56.3307 28.2031 56.3828 28.125C56.513 27.8906 56.6042 27.6302 56.6562 27.3438C56.6823 27.0573 56.7604 26.7839 56.8906 26.5234C57.0469 26.263 57.151 26.0547 57.2031 25.8984C57.2292 25.7161 57.2812 25.5599 57.3594 25.4297C57.4115 25.2995 57.4896 25.1823 57.5938 25.0781C57.6719 24.9479 57.737 24.8177 57.7891 24.6875C57.8411 24.5573 57.9323 24.4141 58.0625 24.2578C58.1927 24.0755 58.2839 23.9193 58.3359 23.7891C58.4141 23.5026 58.5052 23.2161 58.6094 22.9297C58.7135 22.6432 58.8307 22.3568 58.9609 22.0703C59.013 21.888 59.0651 21.7188 59.1172 21.5625C59.1693 21.3802 59.2344 21.2109 59.3125 21.0547C59.4427 20.7682 59.5729 20.4948 59.7031 20.2344C59.8333 19.9479 59.9635 19.6615 60.0938 19.375C60.1719 19.2188 60.237 19.0885 60.2891 18.9844C60.3672 18.8542 60.4583 18.724 60.5625 18.5938C60.6406 18.4635 60.7057 18.3333 60.7578 18.2031C60.8359 18.0729 60.9141 17.9427 60.9922 17.8125C61.0703 17.6823 61.1354 17.5391 61.1875 17.3828C61.2656 17.2005 61.3698 17.0312 61.5 16.875C61.6823 16.6667 61.8255 16.4714 61.9297 16.2891C62.0339 16.1068 62.2031 15.9896 62.4375 15.9375C62.5417 15.9896 62.6458 15.9896 62.75 15.9375C62.8802 15.8854 62.9974 15.8464 63.1016 15.8203C63.2318 15.7682 63.349 15.7422 63.4531 15.7422C63.5573 15.7161 63.6484 15.7552 63.7266 15.8594C64.0651 16.0677 64.3125 16.25 64.4688 16.4062C64.625 16.5625 64.7292 16.7057 64.7812 16.8359C64.9115 17.0703 64.9245 17.3177 64.8203 17.5781C64.7161 17.8125 64.5339 18.0208 64.2734 18.2031C64.1693 18.6458 63.987 19.0625 63.7266 19.4531C63.4661 19.8438 63.2318 20.2214 63.0234 20.5859C62.9714 20.7161 62.9193 20.8464 62.8672 20.9766C62.8151 21.1068 62.763 21.237 62.7109 21.3672C62.5547 21.7318 62.3854 22.0964 62.2031 22.4609C62.0469 22.8255 61.8646 23.1771 61.6562 23.5156C61.5521 23.724 61.4609 23.8932 61.3828 24.0234C61.3047 24.1536 61.2266 24.2708 61.1484 24.375C61.0703 24.4531 61.0052 24.5573 60.9531 24.6875C60.901 24.8177 60.8359 24.987 60.7578 25.1953ZM86.6172 8.4375C86.9557 8.48958 87.2422 8.52865 87.4766 8.55469C87.7109 8.58073 87.9193 8.60677 88.1016 8.63281C88.3099 8.63281 88.5182 8.63281 88.7266 8.63281C88.9349 8.60677 89.1953 8.56771 89.5078 8.51562C90.0807 8.4375 90.5885 8.3724 91.0312 8.32031C91.5 8.24219 92.0078 8.17708 92.5547 8.125C92.7109 8.09896 92.8672 8.09896 93.0234 8.125C93.2057 8.15104 93.375 8.16406 93.5312 8.16406C93.8698 8.16406 94.1953 8.15104 94.5078 8.125C94.8464 8.09896 95.1589 8.07292 95.4453 8.04688C95.5495 8.02083 95.6406 7.99479 95.7188 7.96875C95.7969 7.94271 95.875 7.94271 95.9531 7.96875C96.1875 7.96875 96.4219 7.96875 96.6562 7.96875C96.8906 7.94271 97.099 8.02083 97.2812 8.20312C97.3594 8.46354 97.3854 8.60677 97.3594 8.63281C97.3333 8.65885 97.3073 8.69792 97.2812 8.75C97.2552 9.08854 97.2031 9.25781 97.125 9.25781C97.0729 9.25781 97.0469 9.28385 97.0469 9.33594C96.8385 9.38802 96.6562 9.4401 96.5 9.49219C96.3698 9.51823 96.2656 9.59635 96.1875 9.72656C95.7448 9.83073 95.3281 9.85677 94.9375 9.80469C94.5729 9.72656 94.1953 9.77865 93.8047 9.96094C93.6224 10.0391 93.4271 10.1432 93.2188 10.2734C93.0365 10.3776 92.8021 10.3776 92.5156 10.2734C92.2552 10.2734 91.9557 10.2865 91.6172 10.3125C91.2786 10.3385 90.9531 10.3646 90.6406 10.3906C90.0417 10.4427 89.5208 10.4948 89.0781 10.5469C88.6615 10.5729 88.2578 10.599 87.8672 10.625C87.4766 10.625 87.0729 10.638 86.6562 10.6641C86.2656 10.6901 85.7839 10.7031 85.2109 10.7031C85.0026 10.8854 84.8594 11.1068 84.7812 11.3672C84.7292 11.6276 84.599 11.8359 84.3906 11.9922C84.1823 12.487 84.013 12.8255 83.8828 13.0078C83.7526 13.1641 83.6615 13.3594 83.6094 13.5938C83.2448 14.0625 82.9062 14.5573 82.5938 15.0781C82.3073 15.5729 81.9688 16.0417 81.5781 16.4844C81.526 16.7708 81.4219 17.0312 81.2656 17.2656C81.1354 17.474 81.0443 17.7604 80.9922 18.125C80.7057 18.5156 80.4974 18.9453 80.3672 19.4141C80.237 19.8828 80.0677 20.3776 79.8594 20.8984C79.8073 21.1068 79.7422 21.3151 79.6641 21.5234C79.612 21.7057 79.5469 21.901 79.4688 22.1094C79.3646 22.3698 79.2344 22.6172 79.0781 22.8516C78.9479 23.0599 78.8177 23.2943 78.6875 23.5547C78.6354 23.6068 78.6094 23.6849 78.6094 23.7891C78.6094 23.8672 78.5964 23.9323 78.5703 23.9844C78.4922 24.1667 78.4141 24.3359 78.3359 24.4922C78.2578 24.6224 78.1927 24.7526 78.1406 24.8828C78.0885 25.013 78.0495 25.1562 78.0234 25.3125C78.0234 25.4427 77.9974 25.5729 77.9453 25.7031C77.9193 25.7812 77.8932 25.8594 77.8672 25.9375C77.8411 25.9896 77.8151 26.0547 77.7891 26.1328C77.7109 26.4974 77.7109 26.7448 77.7891 26.875C77.8672 27.0052 77.9323 27.1354 77.9844 27.2656C78.0365 27.4219 78.0885 27.5651 78.1406 27.6953C78.1927 27.7995 78.2318 27.9167 78.2578 28.0469C78.388 28.099 78.5052 28.151 78.6094 28.2031C78.7396 28.2552 78.8698 28.2812 79 28.2812C79.1562 28.3073 79.3255 28.2422 79.5078 28.0859C79.6901 27.9036 79.8464 27.7995 79.9766 27.7734C80.1589 27.7214 80.3281 27.6953 80.4844 27.6953C80.6667 27.6953 80.8229 27.6562 80.9531 27.5781C81.1094 27.4479 81.2396 27.3177 81.3438 27.1875C81.4479 27.0573 81.5911 26.9661 81.7734 26.9141C82.1901 26.8099 82.4115 26.7318 82.4375 26.6797C82.4635 26.6016 82.5547 26.4974 82.7109 26.3672C82.8932 26.237 83.0495 26.1198 83.1797 26.0156C83.3359 25.8854 83.5182 25.7552 83.7266 25.625C83.987 25.4948 84.1302 25.4167 84.1562 25.3906C84.2083 25.3646 84.3255 25.2734 84.5078 25.1172C84.7682 24.987 84.9896 24.8438 85.1719 24.6875C85.3542 24.5312 85.5625 24.388 85.7969 24.2578C86.0573 24.1536 86.2135 24.0885 86.2656 24.0625C86.3177 24.0104 86.3438 23.9714 86.3438 23.9453C86.3698 23.9193 86.3958 23.8802 86.4219 23.8281C86.474 23.776 86.6042 23.6849 86.8125 23.5547C86.9167 23.3464 87.0339 23.1771 87.1641 23.0469C87.2943 22.9167 87.4505 22.7474 87.6328 22.5391C87.7891 22.3568 87.9453 22.2005 88.1016 22.0703C88.2839 21.9401 88.4401 21.8099 88.5703 21.6797C88.6484 21.6276 88.7135 21.5755 88.7656 21.5234C88.8177 21.4453 88.9089 21.3932 89.0391 21.3672C89.1953 21.237 89.3125 21.1328 89.3906 21.0547C89.4948 20.9505 89.651 20.8073 89.8594 20.625C89.9115 20.5729 89.9766 20.5078 90.0547 20.4297C90.1328 20.3516 90.1979 20.2995 90.25 20.2734C90.3542 20.2734 90.4323 20.3125 90.4844 20.3906C90.5625 20.4688 90.6536 20.5078 90.7578 20.5078C90.7318 20.8464 90.7188 21.0677 90.7188 21.1719C90.7188 21.25 90.6927 21.3411 90.6406 21.4453C90.4844 21.6797 90.3021 21.8099 90.0938 21.8359C89.9115 21.862 89.7682 22.0052 89.6641 22.2656C89.5859 22.2135 89.4818 22.2005 89.3516 22.2266C89.2474 22.2526 89.1693 22.2917 89.1172 22.3438C89.1693 22.4479 89.1953 22.5391 89.1953 22.6172C89.1953 22.6953 89.2083 22.7865 89.2344 22.8906C88.7656 23.3594 88.4531 23.737 88.2969 24.0234C87.9844 24.362 87.8151 24.5573 87.7891 24.6094C87.763 24.6354 87.75 24.6484 87.75 24.6484C87.75 24.6484 87.737 24.6615 87.7109 24.6875C87.6849 24.7135 87.5938 24.8047 87.4375 24.9609C87.0729 25.2474 86.7995 25.5208 86.6172 25.7812C86.4349 26.0417 86.1615 26.276 85.7969 26.4844C85.5104 26.6927 85.3151 26.849 85.2109 26.9531C85.1068 27.0573 84.9505 27.2005 84.7422 27.3828C84.638 27.487 84.5339 27.6042 84.4297 27.7344C84.3516 27.8385 84.2474 27.9427 84.1172 28.0469C83.9349 28.1771 83.7526 28.2943 83.5703 28.3984C83.4141 28.5026 83.2708 28.6328 83.1406 28.7891C82.75 28.9714 82.4635 29.1797 82.2812 29.4141C82.125 29.6484 81.8776 29.8698 81.5391 30.0781C81.3047 30.2344 80.9792 30.4297 80.5625 30.6641C80.1719 30.8984 79.8333 31.0677 79.5469 31.1719C79.4688 31.1979 79.3906 31.224 79.3125 31.25C79.2604 31.276 79.1953 31.3021 79.1172 31.3281C78.9089 31.1979 78.7005 31.0677 78.4922 30.9375C78.3099 30.8073 78.1536 30.625 78.0234 30.3906C77.7891 30.2083 77.5938 30.0781 77.4375 30C77.3073 29.9219 77.1771 29.8177 77.0469 29.6875C76.7865 29.2448 76.487 28.8021 76.1484 28.3594C75.8359 27.9167 75.5885 27.4219 75.4062 26.875C75.3542 26.7708 75.3151 26.6667 75.2891 26.5625C75.2891 26.4323 75.276 26.3021 75.25 26.1719C75.1979 25.9635 75.1458 25.7812 75.0938 25.625C75.0417 25.4688 75.0286 25.2734 75.0547 25.0391C75.0547 24.8828 75.0807 24.7135 75.1328 24.5312C75.1849 24.349 75.237 24.1536 75.2891 23.9453C75.3932 23.6068 75.5104 23.2812 75.6406 22.9688C75.7969 22.6562 75.9141 22.3177 75.9922 21.9531C76.0703 21.6667 76.1484 21.4062 76.2266 21.1719C76.3047 20.9375 76.3958 20.6771 76.5 20.3906C76.5521 20.2604 76.5781 20.1432 76.5781 20.0391C76.6042 19.9089 76.6823 19.8177 76.8125 19.7656C76.9167 19.2448 77.0859 18.75 77.3203 18.2812C77.5547 17.7865 77.7891 17.3177 78.0234 16.875C78.3099 16.3281 78.5703 15.7682 78.8047 15.1953C79.0651 14.6224 79.3385 14.0625 79.625 13.5156C79.651 13.2031 79.7552 12.9427 79.9375 12.7344C79.9635 12.4479 80.0677 12.1745 80.25 11.9141C80.4323 11.6276 80.5625 11.3411 80.6406 11.0547C80.3542 10.9766 80.0286 10.9766 79.6641 11.0547C79.3255 11.1068 79.026 11.1589 78.7656 11.2109C78.2969 11.237 77.8021 11.237 77.2812 11.2109C77.099 11.1849 76.9167 11.1589 76.7344 11.1328C76.5781 11.0807 76.4219 11.0547 76.2656 11.0547C76.0312 11.0807 75.849 11.0677 75.7188 11.0156C75.6146 10.9375 75.4974 10.9245 75.3672 10.9766C75.0286 10.6901 74.7812 10.4948 74.625 10.3906C74.4688 10.2865 74.3255 10.1953 74.1953 10.1172C74.0391 10.013 73.9089 9.90885 73.8047 9.80469C73.6745 9.67448 73.5703 9.49219 73.4922 9.25781C73.4922 9.17969 73.5312 9.11458 73.6094 9.0625C73.6875 9.01042 73.7526 8.95833 73.8047 8.90625C74.013 8.85417 74.2474 8.84115 74.5078 8.86719C74.7682 8.86719 74.9766 8.8151 75.1328 8.71094C75.5495 8.76302 75.9271 8.73698 76.2656 8.63281C76.6302 8.52865 77.0078 8.48958 77.3984 8.51562C77.4766 8.51562 77.5547 8.52865 77.6328 8.55469C77.7109 8.58073 77.7891 8.59375 77.8672 8.59375C77.9974 8.61979 78.1016 8.61979 78.1797 8.59375C78.2839 8.56771 78.401 8.54167 78.5312 8.51562C78.6875 8.48958 78.8568 8.48958 79.0391 8.51562C79.2214 8.54167 79.4036 8.54167 79.5859 8.51562C79.9245 8.48958 80.3281 8.52865 80.7969 8.63281C81.2917 8.71094 81.7214 8.6849 82.0859 8.55469C82.2161 8.1901 82.3594 7.82552 82.5156 7.46094C82.6979 7.07031 82.8411 6.69271 82.9453 6.32812C83.0495 6.17188 83.1536 6.0026 83.2578 5.82031C83.362 5.61198 83.4401 5.41667 83.4922 5.23438C83.6484 4.97396 83.7656 4.76562 83.8438 4.60938C83.9479 4.45312 84.0651 4.29688 84.1953 4.14062C84.3776 3.77604 84.5078 3.42448 84.5859 3.08594C84.6901 2.72135 84.8203 2.33073 84.9766 1.91406C85.3151 1.54948 85.6536 1.10677 85.9922 0.585938C86.1745 0.611979 86.3177 0.559896 86.4219 0.429688C86.5521 0.299479 86.7344 0.3125 86.9688 0.46875C86.9688 0.546875 86.9948 0.625 87.0469 0.703125C87.125 0.755208 87.138 0.846354 87.0859 0.976562C87.2161 1.10677 87.3203 1.22396 87.3984 1.32812C87.4766 1.43229 87.5417 1.54948 87.5938 1.67969C87.6458 1.88802 87.6198 2.13542 87.5156 2.42188C87.4375 2.68229 87.4635 2.92969 87.5938 3.16406C87.6458 3.29427 87.6589 3.42448 87.6328 3.55469C87.6068 3.65885 87.6198 3.76302 87.6719 3.86719C87.724 3.9974 87.7891 4.1276 87.8672 4.25781C87.9714 4.38802 88.0234 4.55729 88.0234 4.76562C88.0234 4.84375 87.9974 4.94792 87.9453 5.07812C87.9193 5.18229 87.8802 5.29948 87.8281 5.42969C87.724 5.82031 87.6458 6.09375 87.5938 6.25C87.5417 6.40625 87.4896 6.57552 87.4375 6.75781C87.2552 6.96615 87.1641 7.10938 87.1641 7.1875C87.1641 7.23958 87.151 7.29167 87.125 7.34375C87.0469 7.5 86.9557 7.69531 86.8516 7.92969C86.7734 8.13802 86.6953 8.30729 86.6172 8.4375ZM105.992 18.7109C106.122 18.737 106.201 18.7891 106.227 18.8672C106.279 18.9453 106.357 18.9844 106.461 18.9844C106.487 19.1146 106.474 19.2188 106.422 19.2969C106.396 19.375 106.357 19.4531 106.305 19.5312C106.253 19.5833 106.201 19.6484 106.148 19.7266C106.122 19.7786 106.122 19.8568 106.148 19.9609C105.914 20.1172 105.628 20.2214 105.289 20.2734C104.951 20.2995 104.69 20.4297 104.508 20.6641C104.065 20.8724 103.583 21.0156 103.062 21.0938C102.568 21.1458 102.047 21.224 101.5 21.3281C101.24 21.5104 101.057 21.6146 100.953 21.6406C100.875 21.6667 100.784 21.7057 100.68 21.7578C100.419 21.6536 100.146 21.6016 99.8594 21.6016C99.5729 21.6016 99.2865 21.5625 99 21.4844C98.8438 21.5365 98.6875 21.5625 98.5312 21.5625C98.401 21.5625 98.2578 21.5885 98.1016 21.6406C97.9974 21.849 97.9453 22.0833 97.9453 22.3438C97.9453 22.6042 97.9062 22.8385 97.8281 23.0469L97.5938 23.5156C97.5677 23.6458 97.5417 23.776 97.5156 23.9062C97.5156 24.0104 97.4896 24.1276 97.4375 24.2578C97.3854 24.3359 97.3203 24.4271 97.2422 24.5312C97.1901 24.6354 97.1641 24.7526 97.1641 24.8828C96.9818 25.0911 96.8516 25.3385 96.7734 25.625C96.6953 25.8854 96.5521 26.1068 96.3438 26.2891C96.2656 26.5495 96.1354 26.7578 95.9531 26.9141C95.7969 27.0703 95.6406 27.2526 95.4844 27.4609C95.1979 27.8516 94.9375 28.1901 94.7031 28.4766C94.4948 28.763 94.2083 29.0104 93.8438 29.2188C93.7135 29.4271 93.5573 29.5703 93.375 29.6484C93.2188 29.8047 93.1146 29.9349 93.0625 30.0391C92.8281 30.1693 92.5677 30.3255 92.2812 30.5078C91.9948 30.6901 91.6953 30.8203 91.3828 30.8984C90.9401 31.0026 90.5104 30.9896 90.0938 30.8594C89.6771 30.7292 89.2865 30.5469 88.9219 30.3125C88.6875 30.3385 88.4922 30.2865 88.3359 30.1562C88.2057 30.0521 88.0365 29.974 87.8281 29.9219C87.5417 29.6615 87.2292 29.4271 86.8906 29.2188C86.5521 29.0104 86.3047 28.724 86.1484 28.3594C86.0964 28.0729 86.0443 27.7865 85.9922 27.5C85.9141 27.2135 85.849 26.9531 85.7969 26.7188C85.7448 26.4844 85.7448 26.237 85.7969 25.9766C85.8229 25.7161 85.8229 25.4557 85.7969 25.1953C85.7969 24.9089 85.7969 24.6745 85.7969 24.4922C85.7708 24.2839 85.8229 24.0365 85.9531 23.75C86.1094 23.4115 86.2135 23.138 86.2656 22.9297C86.3177 22.6953 86.3698 22.5 86.4219 22.3438C86.5 22.2135 86.5781 22.0703 86.6562 21.9141C86.7344 21.7578 86.8255 21.6146 86.9297 21.4844C87.0859 21.25 87.2682 21.0156 87.4766 20.7812C87.6849 20.5469 87.8932 20.3255 88.1016 20.1172C88.2578 19.9089 88.401 19.7396 88.5312 19.6094C88.7396 19.401 88.9609 19.2057 89.1953 19.0234C89.4297 18.8411 89.6641 18.6328 89.8984 18.3984C89.9505 18.3203 90.0156 18.2552 90.0938 18.2031C90.1719 18.151 90.25 18.099 90.3281 18.0469C90.5885 17.8906 90.8229 17.7604 91.0312 17.6562C91.2656 17.5521 91.526 17.4349 91.8125 17.3047C92.0208 17.2005 92.2161 17.1354 92.3984 17.1094C92.6068 17.0573 92.8411 17.0052 93.1016 16.9531C93.2839 16.9531 93.4401 16.9531 93.5703 16.9531C93.7005 16.9531 93.8307 16.9271 93.9609 16.875C93.8828 16.6667 93.974 16.5234 94.2344 16.4453C94.4948 16.3672 94.6901 16.3411 94.8203 16.3672C95.0807 16.3672 95.2891 16.4323 95.4453 16.5625C95.6016 16.6667 95.7448 16.7969 95.875 16.9531C96.1615 17.1615 96.4479 17.4349 96.7344 17.7734C96.7865 17.8255 96.8516 17.8646 96.9297 17.8906C97.0078 17.9167 97.0729 17.9557 97.125 18.0078C97.2292 18.138 97.2943 18.2812 97.3203 18.4375C97.3724 18.5938 97.4635 18.737 97.5938 18.8672C97.6719 18.9193 97.75 18.9844 97.8281 19.0625C97.9062 19.1406 97.9583 19.2448 97.9844 19.375C98.1146 19.4271 98.2318 19.4792 98.3359 19.5312C98.4661 19.5573 98.5964 19.5833 98.7266 19.6094C98.8568 19.6615 98.987 19.6745 99.1172 19.6484C99.2734 19.6224 99.4427 19.6224 99.625 19.6484C99.7552 19.6745 99.8724 19.7135 99.9766 19.7656C100.081 19.7917 100.198 19.8047 100.328 19.8047C100.536 19.7786 100.745 19.7266 100.953 19.6484C101.188 19.5703 101.448 19.5573 101.734 19.6094C102.125 19.7135 102.529 19.6745 102.945 19.4922C103.388 19.3099 103.831 19.1927 104.273 19.1406C104.378 19.1406 104.469 19.1406 104.547 19.1406C104.625 19.1146 104.716 19.1016 104.82 19.1016C104.951 18.9974 105.12 18.9193 105.328 18.8672C105.536 18.8151 105.758 18.763 105.992 18.7109ZM94.8203 19.8828C94.5599 19.6484 94.4036 19.5052 94.3516 19.4531C94.3255 19.375 94.2865 19.3229 94.2344 19.2969C94.1302 19.1927 94 19.1276 93.8438 19.1016C93.6875 19.0755 93.5443 19.0495 93.4141 19.0234C92.9974 18.9453 92.6458 18.9974 92.3594 19.1797C92.099 19.3359 91.8385 19.4922 91.5781 19.6484C91.1615 19.9089 90.7969 20.2344 90.4844 20.625C90.4062 20.7552 90.3151 20.8984 90.2109 21.0547C90.1328 21.2109 90.0677 21.3802 90.0156 21.5625C89.9115 21.7708 89.8203 21.9661 89.7422 22.1484C89.6641 22.3047 89.599 22.5 89.5469 22.7344C89.4167 22.9948 89.3385 23.2161 89.3125 23.3984C89.2865 23.5547 89.2604 23.6979 89.2344 23.8281C89.2083 24.0885 89.1562 24.362 89.0781 24.6484C89.026 24.9349 89 25.1823 89 25.3906C89.026 25.4688 89.0651 25.5729 89.1172 25.7031C89.1693 25.8333 89.2214 25.9245 89.2734 25.9766C89.3255 26.1068 89.3776 26.25 89.4297 26.4062C89.5078 26.5625 89.5729 26.6797 89.625 26.7578C89.7552 26.9401 89.9245 27.0573 90.1328 27.1094C90.3411 27.1615 90.5755 27.2266 90.8359 27.3047C91.1224 27.4609 91.3177 27.526 91.4219 27.5C91.526 27.474 91.6042 27.4609 91.6562 27.4609C91.9948 27.4089 92.2943 27.2656 92.5547 27.0312C92.8151 26.7969 93.0755 26.6146 93.3359 26.4844C93.5443 26.1719 93.7656 25.8464 94 25.5078C94.2604 25.1432 94.4948 24.7786 94.7031 24.4141C94.7812 24.3099 94.8464 24.1927 94.8984 24.0625C94.9505 23.9323 95.0026 23.8151 95.0547 23.7109C95.237 23.5026 95.3151 23.3854 95.2891 23.3594C95.2891 23.3333 95.3021 23.2943 95.3281 23.2422C95.5104 22.8516 95.5885 22.5521 95.5625 22.3438C95.5365 22.1354 95.5365 21.9271 95.5625 21.7188C95.4323 21.4323 95.3151 21.1198 95.2109 20.7812C95.1328 20.4427 95.0026 20.1432 94.8203 19.8828ZM114.039 20.7812C114.326 20.8594 114.508 20.9505 114.586 21.0547C114.69 21.1589 114.742 21.263 114.742 21.3672C114.534 21.6536 114.404 21.849 114.352 21.9531C114.326 22.0312 114.247 22.0964 114.117 22.1484C113.779 22.6693 113.388 23.138 112.945 23.5547C112.529 23.9453 112.138 24.388 111.773 24.8828C111.643 25.013 111.526 25.1432 111.422 25.2734C111.318 25.4036 111.201 25.5339 111.07 25.6641C110.784 25.8724 110.523 26.1068 110.289 26.3672C110.055 26.6016 109.807 26.8229 109.547 27.0312C109.417 27.1354 109.286 27.2396 109.156 27.3438C109.052 27.4219 108.935 27.526 108.805 27.6562C108.674 27.7865 108.557 27.8906 108.453 27.9688C108.349 28.0469 108.232 28.138 108.102 28.2422C107.945 28.4245 107.789 28.6068 107.633 28.7891C107.477 28.9714 107.32 29.1667 107.164 29.375C106.878 29.5052 106.617 29.6615 106.383 29.8438C106.148 30.026 105.875 30.1823 105.562 30.3125C105.432 30.3906 105.302 30.5078 105.172 30.6641C105.068 30.8464 104.924 30.9635 104.742 31.0156C104.534 31.0938 104.312 31.1068 104.078 31.0547C103.844 31.0286 103.648 30.9766 103.492 30.8984C103.362 30.7943 103.258 30.7292 103.18 30.7031C103.102 30.6771 103.036 30.6641 102.984 30.6641C102.75 30.3255 102.581 29.9609 102.477 29.5703C102.372 29.1536 102.255 28.724 102.125 28.2812C102.073 28.151 102.034 28.0208 102.008 27.8906C101.982 27.7344 101.956 27.5651 101.93 27.3828C101.904 27.2786 101.878 27.1745 101.852 27.0703C101.852 26.9661 101.826 26.849 101.773 26.7188C101.721 26.5885 101.669 26.4583 101.617 26.3281C101.565 26.1719 101.526 26.0156 101.5 25.8594C101.448 25.5469 101.435 25.2474 101.461 24.9609C101.461 24.6484 101.487 24.349 101.539 24.0625C101.695 23.2031 101.917 22.3828 102.203 21.6016C102.516 20.8203 102.828 20.0781 103.141 19.375C103.193 19.0885 103.258 18.8411 103.336 18.6328C103.44 18.4245 103.531 18.1901 103.609 17.9297C103.74 17.7474 103.831 17.5391 103.883 17.3047C103.935 17.0703 104 16.8359 104.078 16.6016C104.156 16.3932 104.247 16.1719 104.352 15.9375C104.482 15.6771 104.573 15.4297 104.625 15.1953C104.703 14.9349 104.768 14.6745 104.82 14.4141C104.898 14.1536 104.99 13.9193 105.094 13.7109C105.302 13.1641 105.497 12.6432 105.68 12.1484C105.862 11.6536 106.057 11.1589 106.266 10.6641C106.318 10.5078 106.37 10.3516 106.422 10.1953C106.474 10.0391 106.552 9.89583 106.656 9.76562C106.708 9.60938 106.773 9.47917 106.852 9.375C106.93 9.24479 107.008 9.11458 107.086 8.98438C107.086 8.85417 107.125 8.76302 107.203 8.71094C107.307 8.63281 107.385 8.54167 107.438 8.4375C107.568 8.22917 107.659 8.02083 107.711 7.8125C107.789 7.60417 107.893 7.39583 108.023 7.1875L108.492 6.60156C108.544 6.4974 108.596 6.39323 108.648 6.28906C108.701 6.1849 108.779 6.09375 108.883 6.01562C109.169 5.54688 109.482 5.07812 109.82 4.60938C110.159 4.14062 110.51 3.64583 110.875 3.125C111.109 2.76042 111.37 2.42188 111.656 2.10938C111.943 1.77083 112.242 1.44531 112.555 1.13281C112.659 1.0026 112.776 0.859375 112.906 0.703125C113.062 0.546875 113.219 0.455729 113.375 0.429688C113.609 0.403646 113.87 0.429688 114.156 0.507812C114.234 0.638021 114.299 0.78125 114.352 0.9375C114.43 1.06771 114.495 1.22396 114.547 1.40625C114.599 2.21354 114.573 2.99479 114.469 3.75C114.365 4.50521 114.247 5.2474 114.117 5.97656C114.091 6.10677 114.078 6.23698 114.078 6.36719C114.104 6.47135 114.104 6.58854 114.078 6.71875C114.026 6.875 113.961 7.08333 113.883 7.34375C113.805 7.57812 113.74 7.79948 113.688 8.00781C113.688 8.3724 113.609 8.69792 113.453 8.98438C113.297 9.27083 113.193 9.55729 113.141 9.84375C113.062 9.89583 113.01 9.98698 112.984 10.1172C112.984 10.2214 112.945 10.2995 112.867 10.3516C112.815 10.638 112.724 10.8984 112.594 11.1328C112.49 11.3672 112.398 11.6016 112.32 11.8359C111.93 12.3828 111.526 12.9167 111.109 13.4375C110.719 13.9323 110.341 14.4531 109.977 15C109.534 15.6771 109.052 16.3281 108.531 16.9531C108.036 17.5781 107.568 18.2292 107.125 18.9062C106.786 19.1927 106.5 19.5182 106.266 19.8828C106.031 20.2474 105.732 20.5729 105.367 20.8594C105.237 21.3802 105.107 21.9531 104.977 22.5781C104.872 23.1771 104.755 23.7891 104.625 24.4141C104.599 24.5964 104.56 24.7786 104.508 24.9609C104.456 25.1172 104.404 25.2865 104.352 25.4688C104.299 25.6771 104.286 25.8984 104.312 26.1328C104.339 26.3672 104.299 26.5885 104.195 26.7969C104.247 26.9271 104.273 27.0833 104.273 27.2656C104.299 27.4219 104.352 27.5651 104.43 27.6953C104.482 27.7734 104.547 27.8516 104.625 27.9297C104.729 28.0078 104.82 28.0469 104.898 28.0469C105.081 27.9427 105.185 27.9036 105.211 27.9297C105.237 27.9297 105.276 27.9167 105.328 27.8906C105.458 27.8125 105.589 27.7083 105.719 27.5781C105.849 27.4479 105.966 27.3307 106.07 27.2266C106.201 27.1745 106.292 27.1224 106.344 27.0703C106.422 26.9922 106.5 26.9271 106.578 26.875C106.656 26.8229 106.721 26.7839 106.773 26.7578C106.852 26.7318 106.917 26.6927 106.969 26.6406C107.333 26.25 107.685 25.9635 108.023 25.7812C108.362 25.5729 108.635 25.3255 108.844 25.0391C109.104 24.8828 109.339 24.7396 109.547 24.6094C109.703 24.5312 109.833 24.4271 109.938 24.2969C110.068 24.1406 110.224 24.0234 110.406 23.9453C110.458 23.8672 110.51 23.8021 110.562 23.75C110.615 23.6979 110.667 23.6328 110.719 23.5547C111.031 23.3464 111.331 23.138 111.617 22.9297C111.93 22.7214 112.255 22.513 112.594 22.3047C112.646 22.1745 112.724 22.0703 112.828 21.9922C112.958 21.9141 113.062 21.8359 113.141 21.7578C113.219 21.6797 113.284 21.6016 113.336 21.5234C113.388 21.4193 113.479 21.3542 113.609 21.3281C113.635 21.1979 113.688 21.1068 113.766 21.0547C113.87 21.0026 113.961 20.9115 114.039 20.7812ZM111.891 6.21094C111.656 6.26302 111.487 6.38021 111.383 6.5625C111.305 6.74479 111.227 6.95312 111.148 7.1875C111.044 7.39583 110.953 7.55208 110.875 7.65625C110.823 7.76042 110.81 7.91667 110.836 8.125C110.029 9.45312 109.286 10.8464 108.609 12.3047C107.958 13.763 107.294 15.2344 106.617 16.7188C107.138 16.1979 107.62 15.5729 108.062 14.8438C108.531 14.1146 109.013 13.4896 109.508 12.9688C109.872 12.0833 110.276 11.263 110.719 10.5078C111.161 9.72656 111.5 8.85417 111.734 7.89062C111.63 7.57812 111.643 7.30469 111.773 7.07031C111.904 6.8099 111.956 6.52344 111.93 6.21094H111.891ZM124.195 19.4531C124.221 19.5312 124.195 19.6875 124.117 19.9219C123.987 20.0781 123.909 20.2474 123.883 20.4297C123.831 20.5339 123.779 20.625 123.727 20.7031C123.701 20.7812 123.674 20.8854 123.648 21.0156C123.596 21.1719 123.57 21.3542 123.57 21.5625C123.596 21.7708 123.596 21.9661 123.57 22.1484C123.518 22.4349 123.479 22.7214 123.453 23.0078C123.427 23.2682 123.401 23.5417 123.375 23.8281C123.375 24.1146 123.349 24.4401 123.297 24.8047C123.245 25.1693 123.193 25.4948 123.141 25.7812C123.245 25.9635 123.31 26.1589 123.336 26.3672C123.362 26.5755 123.453 26.7448 123.609 26.875C124.13 26.7969 124.547 26.6797 124.859 26.5234C125.172 26.3411 125.471 26.0938 125.758 25.7812C125.992 25.6771 126.148 25.5859 126.227 25.5078C126.331 25.4297 126.487 25.3255 126.695 25.1953C126.747 25.1432 126.799 25.0911 126.852 25.0391C126.904 24.987 126.956 24.9349 127.008 24.8828C127.294 24.7266 127.464 24.6224 127.516 24.5703C127.594 24.5182 127.685 24.4661 127.789 24.4141C128.232 24.1276 128.57 23.8281 128.805 23.5156C129.039 23.3333 129.195 23.1771 129.273 23.0469C129.378 22.8906 129.586 22.7474 129.898 22.6172C130.081 22.4089 130.263 22.2396 130.445 22.1094C130.654 21.9531 130.849 21.7708 131.031 21.5625C131.161 21.5625 131.266 21.5885 131.344 21.6406C131.422 21.6927 131.513 21.7448 131.617 21.7969C131.695 22.0052 131.708 22.2266 131.656 22.4609C131.604 22.6693 131.513 22.8646 131.383 23.0469C131.253 23.2292 131.188 23.3333 131.188 23.3594C131.188 23.3854 131.174 23.4115 131.148 23.4375C131.07 23.5417 130.966 23.6458 130.836 23.75C130.732 23.8281 130.641 23.9193 130.562 24.0234C130.432 24.2578 130.328 24.375 130.25 24.375C130.172 24.375 130.107 24.401 130.055 24.4531C129.82 24.5833 129.651 24.6875 129.547 24.7656C129.469 24.8438 129.326 24.9479 129.117 25.0781C128.831 25.2344 128.661 25.3385 128.609 25.3906C128.557 25.4427 128.505 25.4818 128.453 25.5078C128.115 25.8724 127.802 26.1719 127.516 26.4062C127.255 26.6146 126.969 26.901 126.656 27.2656C126.552 27.3438 126.448 27.4219 126.344 27.5C126.24 27.5781 126.148 27.6823 126.07 27.8125C125.836 27.9688 125.641 28.125 125.484 28.2812C125.354 28.4375 125.198 28.6198 125.016 28.8281C124.859 28.9062 124.69 29.0234 124.508 29.1797C124.326 29.3099 124.13 29.4271 123.922 29.5312C123.818 29.5833 123.701 29.6484 123.57 29.7266C123.466 29.7786 123.349 29.8047 123.219 29.8047C122.906 29.8568 122.62 29.8307 122.359 29.7266C122.099 29.6224 121.852 29.5443 121.617 29.4922C121.513 29.3359 121.383 29.2057 121.227 29.1016C120.992 28.8151 120.823 28.4766 120.719 28.0859C120.615 27.6953 120.51 27.2786 120.406 26.8359C120.198 26.9661 120.003 27.1354 119.82 27.3438C119.638 27.5521 119.404 27.7214 119.117 27.8516C118.596 28.3464 118.036 28.8281 117.438 29.2969C116.865 29.7396 116.279 30.2083 115.68 30.7031C115.602 30.7812 115.523 30.8464 115.445 30.8984C115.367 30.9505 115.302 30.9635 115.25 30.9375C115.12 31.0938 114.938 31.1849 114.703 31.2109C114.495 31.263 114.26 31.263 114 31.2109C113.74 31.0807 113.505 30.9896 113.297 30.9375C113.089 30.8854 112.88 30.8073 112.672 30.7031C112.229 30.625 111.865 30.4297 111.578 30.1172C111.266 29.8047 111.005 29.4401 110.797 29.0234C110.719 28.8151 110.667 28.6198 110.641 28.4375C110.589 28.2552 110.536 28.0469 110.484 27.8125C110.458 27.6042 110.419 27.4349 110.367 27.3047C110.315 27.1484 110.315 27.0052 110.367 26.875C110.315 26.7969 110.302 26.7188 110.328 26.6406C110.354 26.5365 110.367 26.4323 110.367 26.3281C110.341 25.9635 110.38 25.5729 110.484 25.1562C110.562 24.7396 110.68 24.362 110.836 24.0234C110.888 23.9193 110.992 23.7891 111.148 23.6328C111.201 23.5547 111.24 23.4766 111.266 23.3984C111.292 23.3203 111.331 23.2552 111.383 23.2031C111.435 23.125 111.513 23.0469 111.617 22.9688C111.721 22.8906 111.812 22.8125 111.891 22.7344C112.021 22.5521 112.164 22.3958 112.32 22.2656C112.503 22.1094 112.672 21.9531 112.828 21.7969C112.906 21.7188 112.971 21.6276 113.023 21.5234C113.102 21.4193 113.206 21.3411 113.336 21.2891C113.44 21.1068 113.557 20.9635 113.688 20.8594C113.818 20.7292 113.961 20.599 114.117 20.4688C114.56 19.9219 115.107 19.4661 115.758 19.1016C116.409 18.737 116.995 18.3203 117.516 17.8516C117.698 17.7734 117.854 17.6823 117.984 17.5781C118.115 17.474 118.245 17.3698 118.375 17.2656C118.714 16.9792 119.065 16.888 119.43 16.9922C119.794 17.0964 120.133 17.1875 120.445 17.2656C120.706 17.5 120.953 17.7344 121.188 17.9688C121.448 18.2031 121.669 18.4635 121.852 18.75C122.034 18.724 122.242 18.724 122.477 18.75C122.711 18.75 122.958 18.724 123.219 18.6719C123.297 18.6719 123.375 18.6589 123.453 18.6328C123.531 18.5807 123.596 18.5547 123.648 18.5547C124.039 18.6849 124.234 18.8802 124.234 19.1406L124.195 19.4531ZM119.078 19.7266C118.375 20.0651 117.737 20.4688 117.164 20.9375C116.591 21.3802 116.044 21.862 115.523 22.3828C115.393 22.513 115.25 22.6432 115.094 22.7734C114.964 22.8776 114.846 22.9948 114.742 23.125C114.638 23.2552 114.534 23.4115 114.43 23.5938C114.352 23.776 114.273 23.9453 114.195 24.1016C114.143 24.2057 114.091 24.2969 114.039 24.375C113.987 24.4271 113.935 24.4922 113.883 24.5703C113.831 24.7005 113.805 24.8307 113.805 24.9609C113.831 25.0911 113.844 25.2344 113.844 25.3906C113.844 25.5208 113.844 25.651 113.844 25.7812C113.844 25.9115 113.857 26.0417 113.883 26.1719C113.961 26.4583 114 26.7448 114 27.0312C114 27.2396 114.013 27.5 114.039 27.8125C114.091 28.099 114.195 28.2943 114.352 28.3984C114.508 28.5026 114.664 28.5286 114.82 28.4766C115.003 28.4245 115.159 28.3854 115.289 28.3594C116.201 27.6562 117.06 26.9271 117.867 26.1719C118.674 25.3906 119.391 24.5182 120.016 23.5547C119.964 22.8776 119.951 22.2266 119.977 21.6016C120.029 20.9505 119.977 20.3516 119.82 19.8047C119.716 19.7526 119.586 19.7396 119.43 19.7656C119.299 19.7656 119.182 19.7526 119.078 19.7266ZM162.164 1.99219C162.242 2.22656 162.281 2.38281 162.281 2.46094C162.333 2.53906 162.424 2.65625 162.555 2.8125C162.711 2.94271 162.828 3.00781 162.906 3.00781C163.219 3.00781 163.388 3.02083 163.414 3.04688C163.466 3.07292 163.518 3.09896 163.57 3.125C163.57 3.41146 163.583 3.56771 163.609 3.59375C163.635 3.61979 163.661 3.65885 163.688 3.71094C163.688 3.8151 163.661 3.9974 163.609 4.25781C163.557 4.46615 163.466 4.67448 163.336 4.88281C163.206 5.09115 163.076 5.29948 162.945 5.50781C162.815 5.71615 162.672 5.91146 162.516 6.09375C162.385 6.27604 162.255 6.45833 162.125 6.64062C161.995 6.82292 161.904 7.00521 161.852 7.1875C161.799 7.34375 161.669 7.5 161.461 7.65625C161.279 7.78646 161.096 7.91667 160.914 8.04688C160.732 8.17708 160.562 8.32031 160.406 8.47656L159.938 9.0625C159.885 9.19271 159.807 9.3099 159.703 9.41406C159.625 9.49219 159.56 9.58333 159.508 9.6875C159.352 9.92188 159.221 10.1562 159.117 10.3906C159.039 10.625 158.87 10.8333 158.609 11.0156C158.245 11.6667 157.828 12.2656 157.359 12.8125C156.891 13.3594 156.448 13.9453 156.031 14.5703C156.318 14.5964 156.604 14.5964 156.891 14.5703C157.203 14.5182 157.542 14.4792 157.906 14.4531C158.688 14.401 159.417 14.362 160.094 14.3359C160.771 14.3099 161.448 14.2969 162.125 14.2969C162.333 14.4531 162.398 14.6484 162.32 14.8828C162.19 14.8828 162.086 14.9219 162.008 15C161.956 15.0521 161.865 15.0521 161.734 15C161.63 15.0521 161.565 15.1172 161.539 15.1953C161.513 15.2734 161.474 15.3385 161.422 15.3906C161.266 15.8594 160.914 16.1068 160.367 16.1328C159.846 16.1328 159.365 16.1589 158.922 16.2109C158.635 16.237 158.479 16.263 158.453 16.2891C158.453 16.2891 158.44 16.2891 158.414 16.2891C157.945 16.3411 157.464 16.4062 156.969 16.4844C156.5 16.5365 156.031 16.5885 155.562 16.6406C155.432 16.7448 155.276 16.7839 155.094 16.7578C154.938 16.7057 154.794 16.7057 154.664 16.7578C154.586 16.8099 154.534 16.875 154.508 16.9531C154.482 17.0312 154.443 17.1094 154.391 17.1875C154.26 17.3698 154.143 17.5391 154.039 17.6953C153.935 17.8516 153.818 18.0208 153.688 18.2031C153.557 18.3333 153.427 18.4766 153.297 18.6328C153.193 18.7891 153.089 18.9583 152.984 19.1406C152.88 19.2188 152.789 19.3099 152.711 19.4141C152.659 19.5182 152.594 19.6224 152.516 19.7266C152.307 20.013 152.086 20.3125 151.852 20.625C151.617 20.9115 151.383 21.1979 151.148 21.4844C151.018 21.7188 150.875 21.9531 150.719 22.1875C150.589 22.3958 150.445 22.6302 150.289 22.8906C150.211 23.0469 150.133 23.2161 150.055 23.3984C150.003 23.5547 149.951 23.7109 149.898 23.8672C149.82 24.0755 149.729 24.2578 149.625 24.4141C149.547 24.5443 149.482 24.7005 149.43 24.8828C149.299 25.0911 149.169 25.3125 149.039 25.5469C148.909 25.7812 148.779 26.0286 148.648 26.2891C148.31 26.8099 147.945 27.3698 147.555 27.9688C147.19 28.5417 146.839 29.1406 146.5 29.7656C146.396 29.9219 146.305 30.0781 146.227 30.2344C146.148 30.4167 146.044 30.5729 145.914 30.7031C145.836 30.8073 145.745 30.8854 145.641 30.9375C145.562 30.9896 145.484 31.0417 145.406 31.0938C145.198 31.25 144.951 31.4193 144.664 31.6016C144.378 31.7839 144.13 31.9401 143.922 32.0703C143.635 32.1745 143.44 32.3047 143.336 32.4609C143.232 32.6172 143.154 32.7865 143.102 32.9688C142.711 33.151 142.438 33.151 142.281 32.9688C142.125 32.7865 142.06 32.6172 142.086 32.4609C142.086 32.3568 142.151 32.2135 142.281 32.0312C142.438 31.849 142.542 31.7057 142.594 31.6016L142.984 31.0156C143.062 30.8073 143.115 30.6641 143.141 30.5859C143.193 30.5078 143.245 30.4297 143.297 30.3516C143.349 30.2474 143.388 30.1693 143.414 30.1172C143.466 30.0651 143.492 29.987 143.492 29.8828C143.622 29.7266 143.727 29.5703 143.805 29.4141C143.883 29.2318 143.974 29.0495 144.078 28.8672C144.286 28.6589 144.469 28.4115 144.625 28.125C144.781 27.8385 144.977 27.5781 145.211 27.3438C145.263 27.1875 145.328 27.0573 145.406 26.9531C145.484 26.849 145.576 26.7448 145.68 26.6406C145.836 26.3281 146.005 26.0286 146.188 25.7422C146.37 25.4297 146.487 25.0651 146.539 24.6484C146.643 24.2318 146.773 23.9193 146.93 23.7109C147.086 23.5026 147.229 23.2812 147.359 23.0469C147.411 22.8646 147.464 22.6953 147.516 22.5391C147.568 22.3828 147.659 22.2396 147.789 22.1094C147.945 21.849 148.076 21.6146 148.18 21.4062C148.284 21.1979 148.401 20.9635 148.531 20.7031C148.661 20.3385 148.857 19.974 149.117 19.6094C149.169 19.5312 149.221 19.4661 149.273 19.4141C149.326 19.3359 149.378 19.2448 149.43 19.1406C149.534 18.9844 149.612 18.8151 149.664 18.6328C149.742 18.4505 149.833 18.2812 149.938 18.125C150.016 17.9948 150.094 17.8906 150.172 17.8125C150.276 17.7083 150.328 17.5521 150.328 17.3438C150.094 17.2917 149.885 17.3177 149.703 17.4219C149.391 17.4479 149.026 17.5 148.609 17.5781C148.219 17.6302 147.815 17.6562 147.398 17.6562C147.268 17.6562 147.112 17.6693 146.93 17.6953C146.773 17.6953 146.617 17.7083 146.461 17.7344C146.331 17.7865 146.201 17.8516 146.07 17.9297C145.94 17.9818 145.81 17.9427 145.68 17.8125C145.576 17.6562 145.497 17.5781 145.445 17.5781C145.419 17.5521 145.393 17.513 145.367 17.4609C145.237 17.2005 145.094 16.9922 144.938 16.8359C144.885 16.7578 144.846 16.6927 144.82 16.6406C144.82 16.5625 144.768 16.4974 144.664 16.4453C144.586 16.3672 144.508 16.224 144.43 16.0156C144.69 15.6771 145.042 15.5078 145.484 15.5078C146.63 15.2474 147.763 15.0651 148.883 14.9609C150.003 14.8568 151.109 14.7266 152.203 14.5703C152.281 14.5182 152.333 14.4531 152.359 14.375C152.411 14.2708 152.464 14.1797 152.516 14.1016C152.646 13.9453 152.776 13.8021 152.906 13.6719C153.062 13.5156 153.18 13.3333 153.258 13.125C153.362 13.0729 153.427 13.0078 153.453 12.9297C153.479 12.8516 153.531 12.7865 153.609 12.7344C153.714 12.6042 153.766 12.487 153.766 12.3828C153.792 12.2786 153.831 12.2005 153.883 12.1484C154.169 11.7578 154.365 11.4844 154.469 11.3281C154.573 11.1458 154.69 10.9635 154.82 10.7812C154.951 10.599 155.081 10.4427 155.211 10.3125C155.341 10.1562 155.471 10 155.602 9.84375C155.706 9.71354 155.797 9.60938 155.875 9.53125C155.953 9.42708 156.031 9.32292 156.109 9.21875C156.318 8.85417 156.591 8.47656 156.93 8.08594C157.216 7.7474 157.451 7.38281 157.633 6.99219C157.789 6.96615 157.88 6.90104 157.906 6.79688C157.958 6.66667 158.036 6.5625 158.141 6.48438C158.271 6.17188 158.427 5.89844 158.609 5.66406C158.792 5.40365 158.948 5.11719 159.078 4.80469C158.948 4.77865 158.792 4.80469 158.609 4.88281C158.427 4.96094 158.232 5 158.023 5C157.763 5.05208 157.555 5.10417 157.398 5.15625C157.242 5.20833 157.06 5.26042 156.852 5.3125C156.461 5.36458 156.044 5.48177 155.602 5.66406C155.185 5.84635 154.781 5.98958 154.391 6.09375C153.401 6.19792 152.464 6.30208 151.578 6.40625C150.693 6.51042 149.794 6.60156 148.883 6.67969C148.674 6.70573 148.466 6.73177 148.258 6.75781C148.049 6.78385 147.841 6.79688 147.633 6.79688C147.216 6.79688 146.799 6.83594 146.383 6.91406C146.253 6.88802 146.135 6.88802 146.031 6.91406C145.927 6.9401 145.81 6.9401 145.68 6.91406C145.367 6.8099 145.172 6.73177 145.094 6.67969C145.016 6.6276 144.911 6.60156 144.781 6.60156C144.677 6.54948 144.599 6.4974 144.547 6.44531C144.495 6.39323 144.443 6.36719 144.391 6.36719C144.208 6.13281 144.104 5.98958 144.078 5.9375C144.052 5.85938 144.13 5.76823 144.312 5.66406C144.417 5.40365 144.625 5.2474 144.938 5.19531C145.276 5.14323 145.549 5.0651 145.758 4.96094C146.122 4.88281 146.474 4.81771 146.812 4.76562C147.177 4.6875 147.555 4.60938 147.945 4.53125C148.362 4.40104 148.688 4.33594 148.922 4.33594C149.156 4.3099 149.378 4.24479 149.586 4.14062C149.977 4.11458 150.341 4.0625 150.68 3.98438C151.044 3.88021 151.409 3.78906 151.773 3.71094C151.878 3.65885 151.982 3.63281 152.086 3.63281C152.216 3.60677 152.32 3.55469 152.398 3.47656C152.685 3.47656 152.828 3.45052 152.828 3.39844C154.156 3.13802 155.445 2.83854 156.695 2.5C157.945 2.16146 159.26 1.92708 160.641 1.79688C160.927 1.77083 161.201 1.78385 161.461 1.83594C161.747 1.86198 161.982 1.91406 162.164 1.99219ZM166.695 10.5469C166.747 10.625 166.773 10.7031 166.773 10.7812C166.773 10.8594 166.812 10.9245 166.891 10.9766C166.839 11.2109 166.786 11.4583 166.734 11.7188C166.708 11.9531 166.695 12.1875 166.695 12.4219C166.695 12.526 166.721 12.6172 166.773 12.6953C166.852 12.7734 166.891 12.8516 166.891 12.9297C166.76 13.2422 166.656 13.4245 166.578 13.4766C166.526 13.5286 166.5 13.5938 166.5 13.6719C166.37 13.724 166.266 13.8021 166.188 13.9062C166.135 14.0104 166.031 14.0625 165.875 14.0625C165.823 14.1406 165.758 14.2057 165.68 14.2578C165.628 14.2839 165.589 14.349 165.562 14.4531C165.146 14.6354 164.677 14.6224 164.156 14.4141C164.026 14.1797 163.844 14.0104 163.609 13.9062C163.271 13.4115 163.258 12.8255 163.57 12.1484C163.622 12.0182 163.674 11.888 163.727 11.7578C163.805 11.6016 163.87 11.4974 163.922 11.4453C164.208 11.237 164.417 11.1068 164.547 11.0547C164.651 11.0026 164.755 10.9375 164.859 10.8594C164.99 10.7812 165.133 10.7161 165.289 10.6641C165.341 10.638 165.406 10.625 165.484 10.625C165.589 10.625 165.693 10.599 165.797 10.5469C165.901 10.5208 165.992 10.4948 166.07 10.4688C166.148 10.4427 166.227 10.4297 166.305 10.4297L166.695 10.5469ZM160.641 27.8125C160.875 27.7083 161.161 27.6693 161.5 27.6953C161.839 27.7214 162.112 27.6693 162.32 27.5391C162.424 27.4609 162.516 27.3828 162.594 27.3047C162.672 27.2266 162.763 27.2005 162.867 27.2266C163.284 27.0703 163.635 26.9141 163.922 26.7578C164.208 26.6016 164.521 26.4844 164.859 26.4062C164.938 26.3802 165.029 26.3281 165.133 26.25C165.263 26.1719 165.354 26.1068 165.406 26.0547C165.823 25.9245 166.122 25.7943 166.305 25.6641C166.487 25.5339 166.656 25.4036 166.812 25.2734C166.995 25.1432 167.164 25.013 167.32 24.8828C167.503 24.7266 167.724 24.5443 167.984 24.3359C168.349 24.1276 168.648 23.9453 168.883 23.7891C169.143 23.6328 169.417 23.4375 169.703 23.2031C169.755 23.0729 169.82 22.9818 169.898 22.9297C170.003 22.8516 170.081 22.7604 170.133 22.6562C170.602 22.6562 170.862 22.8385 170.914 23.2031C170.784 23.4896 170.602 23.724 170.367 23.9062C170.159 24.0885 169.964 24.2969 169.781 24.5312C169.573 24.6615 169.404 24.7786 169.273 24.8828C169.143 24.987 169.013 25.1432 168.883 25.3516C168.857 25.3516 168.779 25.4167 168.648 25.5469C168.518 25.651 168.44 25.7031 168.414 25.7031C168.258 25.8854 168.141 26.0026 168.062 26.0547C168.01 26.1068 167.958 26.1458 167.906 26.1719C167.88 26.1719 167.828 26.1979 167.75 26.25C167.698 26.3021 167.581 26.4062 167.398 26.5625C167.216 26.849 166.982 27.0833 166.695 27.2656C166.148 27.7865 165.549 28.2422 164.898 28.6328C164.273 28.9974 163.701 29.362 163.18 29.7266C163.076 29.7786 162.984 29.8568 162.906 29.9609C162.828 30.0391 162.737 30.1172 162.633 30.1953C162.503 30.2995 162.294 30.4036 162.008 30.5078C161.747 30.612 161.513 30.7031 161.305 30.7812C161.148 30.8854 161.005 30.9635 160.875 31.0156C160.302 31.0417 159.859 30.9505 159.547 30.7422C159.208 30.5599 158.948 30.4167 158.766 30.3125C158.583 30.2083 158.427 30.0391 158.297 29.8047C158.01 29.6745 157.828 29.4401 157.75 29.1016C157.698 28.737 157.633 28.3854 157.555 28.0469C157.529 27.9167 157.503 27.7734 157.477 27.6172C157.451 27.4349 157.451 27.2526 157.477 27.0703C157.529 26.7839 157.568 26.4844 157.594 26.1719C157.62 25.8333 157.685 25.5469 157.789 25.3125C157.919 25.026 157.984 24.7396 157.984 24.4531C158.01 24.1667 158.089 23.8802 158.219 23.5938C158.375 23.3333 158.44 23.1901 158.414 23.1641C158.414 23.138 158.427 23.099 158.453 23.0469C158.505 22.9688 158.557 22.8906 158.609 22.8125C158.688 22.7344 158.753 22.6432 158.805 22.5391L159.039 21.9531C159.143 21.7708 159.26 21.5885 159.391 21.4062C159.521 21.224 159.625 21.0026 159.703 20.7422C159.755 20.5859 159.82 20.4427 159.898 20.3125C160.003 20.1823 160.107 20.0391 160.211 19.8828C160.289 19.7266 160.354 19.5703 160.406 19.4141C160.458 19.2318 160.523 19.0495 160.602 18.8672C160.68 18.6589 160.771 18.4505 160.875 18.2422C161.005 18.0339 161.135 17.8255 161.266 17.6172C161.37 17.4089 161.461 17.2526 161.539 17.1484C161.617 17.0443 161.773 16.9792 162.008 16.9531C162.112 16.9271 162.229 16.9401 162.359 16.9922C162.49 17.0182 162.62 17.0052 162.75 16.9531C163.089 16.7969 163.323 16.7188 163.453 16.7188C163.583 16.7188 163.674 16.6797 163.727 16.6016C164.013 16.6276 164.221 16.7188 164.352 16.875C164.482 17.0312 164.638 17.1875 164.82 17.3438C164.664 18.099 164.482 18.6849 164.273 19.1016C164.091 19.4922 163.883 19.9089 163.648 20.3516C163.518 20.5599 163.388 20.7943 163.258 21.0547C163.128 21.3151 163.01 21.5495 162.906 21.7578C162.776 22.0443 162.633 22.3047 162.477 22.5391C162.346 22.7474 162.229 22.9948 162.125 23.2812C162.073 23.4115 162.008 23.5417 161.93 23.6719C161.878 23.776 161.826 23.8932 161.773 24.0234C161.721 24.2057 161.643 24.375 161.539 24.5312C161.461 24.6615 161.383 24.7917 161.305 24.9219C161.227 25.0781 161.148 25.2344 161.07 25.3906C160.992 25.5469 160.927 25.7161 160.875 25.8984C160.745 26.2109 160.667 26.4062 160.641 26.4844C160.615 26.5365 160.589 26.5885 160.562 26.6406C160.51 26.9271 160.432 27.1615 160.328 27.3438C160.224 27.526 160.263 27.6562 160.445 27.7344L160.641 27.8125ZM179.469 26.9141C179.573 26.7839 179.651 26.6927 179.703 26.6406C179.755 26.5625 179.833 26.4974 179.938 26.4453C180.12 26.0547 180.315 25.7422 180.523 25.5078C180.758 25.2474 180.992 25.013 181.227 24.8047C181.461 24.5703 181.708 24.362 181.969 24.1797C182.255 23.9714 182.568 23.724 182.906 23.4375C183.036 23.4375 183.141 23.3984 183.219 23.3203C183.323 23.2161 183.44 23.138 183.57 23.0859C183.753 22.9297 183.896 22.8125 184 22.7344C184.13 22.6562 184.234 22.5521 184.312 22.4219C184.625 22.2656 184.898 22.0703 185.133 21.8359C185.393 21.6016 185.667 21.3802 185.953 21.1719C186.188 21.1198 186.409 21.1458 186.617 21.25C186.721 21.4583 186.76 21.6797 186.734 21.9141C186.708 22.1484 186.578 22.2786 186.344 22.3047C186.266 22.3828 186.174 22.4609 186.07 22.5391C185.992 22.6172 185.888 22.6693 185.758 22.6953C185.602 22.7214 185.484 22.7604 185.406 22.8125C185.354 22.8385 185.302 22.9036 185.25 23.0078C185.224 23.2682 185.185 23.4245 185.133 23.4766C185.107 23.5026 185.081 23.5417 185.055 23.5938C184.898 23.8542 184.729 24.0885 184.547 24.2969C184.391 24.4792 184.234 24.6615 184.078 24.8438C183.922 25 183.766 25.1823 183.609 25.3906C183.453 25.5729 183.284 25.8073 183.102 26.0938C182.945 26.1979 182.828 26.3411 182.75 26.5234C182.281 26.7839 181.93 26.9922 181.695 27.1484C181.487 27.2786 181.292 27.4479 181.109 27.6562C180.953 27.7604 180.875 27.8385 180.875 27.8906C180.875 27.9427 180.849 27.9948 180.797 28.0469C180.536 28.2552 180.38 28.4245 180.328 28.5547C180.302 28.6589 180.25 28.737 180.172 28.7891C179.911 28.9714 179.716 29.1406 179.586 29.2969C179.456 29.4271 179.286 29.5312 179.078 29.6094C178.922 29.7396 178.701 29.8958 178.414 30.0781C178.128 30.2604 177.815 30.4297 177.477 30.5859C177.138 30.7422 176.799 30.8464 176.461 30.8984C176.148 30.9766 175.875 30.9635 175.641 30.8594C175.536 30.7812 175.445 30.7031 175.367 30.625C175.289 30.5729 175.198 30.5208 175.094 30.4688C174.911 30.2604 174.716 30.0911 174.508 29.9609C174.326 29.8047 174.156 29.6094 174 29.375C173.818 29.1146 173.688 28.8411 173.609 28.5547C173.557 28.2422 173.466 27.9427 173.336 27.6562C173.31 27.3438 173.31 27.0443 173.336 26.7578C173.362 26.4453 173.414 26.1849 173.492 25.9766C173.779 25.0911 174.117 24.3229 174.508 23.6719C174.924 23.0208 175.211 22.2786 175.367 21.4453C175.081 21.1589 174.911 20.8984 174.859 20.6641C174.833 20.4036 174.768 20.0521 174.664 19.6094C173.987 20.0521 173.362 20.612 172.789 21.2891C172.216 21.9661 171.708 22.6562 171.266 23.3594C171.083 23.6719 170.927 23.9583 170.797 24.2188C170.667 24.4792 170.51 24.7135 170.328 24.9219C170.198 25.0521 170.133 25.1432 170.133 25.1953C170.133 25.2214 170.107 25.2604 170.055 25.3125C169.846 25.5729 169.716 25.7552 169.664 25.8594C169.612 25.9635 169.56 26.0547 169.508 26.1328C169.456 26.2109 169.391 26.2891 169.312 26.3672C169.234 26.4453 169.169 26.5234 169.117 26.6016C168.753 27.1224 168.414 27.6172 168.102 28.0859C167.815 28.5286 167.516 28.9844 167.203 29.4531C167.073 29.6615 166.956 29.8828 166.852 30.1172C166.747 30.3516 166.617 30.5599 166.461 30.7422C166.201 30.7682 166.057 30.7292 166.031 30.625C165.979 30.5208 165.979 30.4297 166.031 30.3516C165.875 30.2474 165.758 30.0911 165.68 29.8828C165.576 29.6484 165.523 29.401 165.523 29.1406C165.497 28.8802 165.497 28.6198 165.523 28.3594C165.549 28.099 165.602 27.8776 165.68 27.6953C165.602 27.4609 165.576 27.3307 165.602 27.3047C165.628 27.2786 165.641 27.2396 165.641 27.1875C165.979 26.7188 166.331 26.25 166.695 25.7812C167.034 25.3125 167.398 24.8698 167.789 24.4531C167.919 24.2708 168.036 24.0885 168.141 23.9062C168.271 23.724 168.414 23.5547 168.57 23.3984C168.805 22.9818 169.065 22.5911 169.352 22.2266C169.664 21.862 169.924 21.4583 170.133 21.0156C170.263 20.8854 170.354 20.7422 170.406 20.5859C170.484 20.4297 170.602 20.2995 170.758 20.1953C170.94 19.8828 171.083 19.5833 171.188 19.2969C171.292 19.0104 171.435 18.763 171.617 18.5547C171.669 18.3724 171.734 18.2292 171.812 18.125C171.891 18.0208 171.995 17.9036 172.125 17.7734C172.151 17.6432 172.216 17.5391 172.32 17.4609C172.451 17.3568 172.555 17.2396 172.633 17.1094C172.685 16.9271 172.75 16.8099 172.828 16.7578C172.906 16.7057 172.945 16.6146 172.945 16.4844C173.076 16.3542 173.206 16.224 173.336 16.0938C173.466 15.9375 173.583 15.7552 173.688 15.5469C174.052 15.3385 174.299 15.2344 174.43 15.2344C174.586 15.2344 174.703 15.1693 174.781 15.0391C174.99 15.0391 175.237 15.0391 175.523 15.0391C175.81 15.013 175.966 15.1042 175.992 15.3125C176.018 15.3646 176.018 15.4297 175.992 15.5078C175.966 15.5859 175.94 15.6641 175.914 15.7422C175.94 15.9766 175.94 16.1068 175.914 16.1328C175.888 16.1328 175.875 16.1458 175.875 16.1719C175.849 16.25 175.836 16.3411 175.836 16.4453C175.862 16.5495 175.875 16.6667 175.875 16.7969C175.849 17.0052 175.823 17.1745 175.797 17.3047C175.771 17.4089 175.823 17.5521 175.953 17.7344C176.005 17.8125 176.083 17.8906 176.188 17.9688C176.292 18.0208 176.383 18.099 176.461 18.2031C176.539 18.2812 176.578 18.3594 176.578 18.4375C176.604 18.5156 176.656 18.5938 176.734 18.6719C176.786 18.75 176.865 18.8151 176.969 18.8672C177.073 18.9193 177.151 19.0104 177.203 19.1406C177.333 19.2448 177.372 19.3099 177.32 19.3359C177.294 19.362 177.359 19.4141 177.516 19.4922C177.828 19.8828 178.049 20.2865 178.18 20.7031C178.336 21.0156 178.479 21.276 178.609 21.4844C178.74 21.6927 178.74 21.901 178.609 22.1094C178.557 22.1615 178.505 22.2266 178.453 22.3047C178.427 22.3828 178.388 22.474 178.336 22.5781C178.232 22.6823 178.128 22.8125 178.023 22.9688C177.971 23.0729 177.932 23.1771 177.906 23.2812C177.88 23.3594 177.841 23.4375 177.789 23.5156C177.555 23.8802 177.307 24.2188 177.047 24.5312C176.812 24.8438 176.604 25.1693 176.422 25.5078C176.448 26.263 176.591 26.8099 176.852 27.1484C177.164 27.513 177.359 27.6953 177.438 27.6953C177.594 27.7214 177.776 27.6693 177.984 27.5391C178.193 27.4089 178.362 27.3047 178.492 27.2266C178.596 27.1745 178.688 27.1224 178.766 27.0703C178.844 27.0182 178.935 26.9792 179.039 26.9531C179.326 26.849 179.456 26.8229 179.43 26.875C179.404 26.901 179.417 26.9141 179.469 26.9141ZM187.477 24.2578C187.529 24.362 187.503 24.5052 187.398 24.6875C187.32 24.8698 187.255 25.026 187.203 25.1562C187.229 25.2604 187.255 25.3516 187.281 25.4297C187.307 25.4818 187.294 25.5599 187.242 25.6641C187.424 25.7943 187.542 25.9505 187.594 26.1328C187.646 26.2891 187.737 26.4583 187.867 26.6406C187.997 26.7969 188.128 26.9271 188.258 27.0312C188.414 27.1354 188.557 27.2526 188.688 27.3828C188.818 27.3047 188.922 27.2656 189 27.2656C189.078 27.2656 189.182 27.2396 189.312 27.1875C189.547 26.875 189.729 26.5104 189.859 26.0938C189.885 25.9896 189.911 25.8724 189.938 25.7422C189.964 25.612 189.977 25.4948 189.977 25.3906C189.951 25.026 189.846 24.6745 189.664 24.3359C189.482 23.9974 189.339 23.6458 189.234 23.2812C189.13 23.0729 189.091 22.8385 189.117 22.5781C189.169 22.3177 189.169 22.0833 189.117 21.875C189.091 21.7448 189.052 21.6406 189 21.5625C188.948 21.4844 188.896 21.3932 188.844 21.2891C188.792 21.0807 188.766 20.8464 188.766 20.5859C188.792 20.3255 188.74 20.1042 188.609 19.9219C188.505 20.026 188.336 20.2214 188.102 20.5078C187.867 20.7943 187.62 21.1068 187.359 21.4453C187.099 21.7839 186.852 22.0964 186.617 22.3828C186.409 22.6693 186.253 22.8646 186.148 22.9688C186.018 23.151 185.875 23.3203 185.719 23.4766C185.562 23.6068 185.419 23.763 185.289 23.9453C185.185 24.0755 185.003 24.2969 184.742 24.6094C184.508 24.8958 184.26 25.2083 184 25.5469C183.74 25.8854 183.505 26.2109 183.297 26.5234C183.062 26.8099 182.906 27.0052 182.828 27.1094C182.776 27.1875 182.646 27.3828 182.438 27.6953C182.203 28.0078 181.956 28.3464 181.695 28.7109C181.409 29.0755 181.161 29.4141 180.953 29.7266C180.719 30.0391 180.576 30.2474 180.523 30.3516C180.367 30.612 180.172 30.8333 179.938 31.0156C179.677 31.224 179.378 31.3281 179.039 31.3281C179.013 31.3021 178.987 31.224 178.961 31.0938C178.935 30.9896 178.922 30.8724 178.922 30.7422C178.896 30.612 178.87 30.4818 178.844 30.3516C178.792 30.2474 178.753 30.1693 178.727 30.1172C178.805 29.9609 178.87 29.8047 178.922 29.6484C178.948 29.4922 179.052 29.349 179.234 29.2188C179.286 29.0365 179.443 28.75 179.703 28.3594C179.964 27.9427 180.25 27.513 180.562 27.0703C180.875 26.6276 181.174 26.2109 181.461 25.8203C181.721 25.4297 181.904 25.1562 182.008 25C182.112 24.8958 182.281 24.7005 182.516 24.4141C182.75 24.1276 182.984 23.8281 183.219 23.5156C183.453 23.1771 183.674 22.8646 183.883 22.5781C184.117 22.2917 184.286 22.0833 184.391 21.9531C184.469 21.7188 184.638 21.4062 184.898 21.0156C185.159 20.599 185.445 20.1823 185.758 19.7656C186.07 19.3229 186.37 18.9062 186.656 18.5156C186.969 18.125 187.203 17.8125 187.359 17.5781C187.49 17.3698 187.594 17.1875 187.672 17.0312C187.776 16.875 187.88 16.7057 187.984 16.5234C188.036 16.4714 188.089 16.4193 188.141 16.3672C188.193 16.2891 188.232 16.224 188.258 16.1719C188.31 15.9635 188.284 15.8203 188.18 15.7422C188.076 15.638 188.036 15.4948 188.062 15.3125C188.271 14.8958 188.492 14.6224 188.727 14.4922C188.987 14.3359 189.221 14.1146 189.43 13.8281C189.56 13.724 189.677 13.6458 189.781 13.5938C189.911 13.5417 190.042 13.4505 190.172 13.3203C190.276 13.2161 190.406 13.1641 190.562 13.1641C190.719 13.138 190.862 13.151 190.992 13.2031C191.148 13.2292 191.279 13.2812 191.383 13.3594C191.513 13.4115 191.591 13.4635 191.617 13.5156C191.643 13.5938 191.643 13.6979 191.617 13.8281C191.591 13.9583 191.565 14.0885 191.539 14.2188C191.487 14.4531 191.435 14.6745 191.383 14.8828C191.331 15.0651 191.279 15.2734 191.227 15.5078C191.174 15.7943 191.122 16.0677 191.07 16.3281C191.044 16.5885 191.135 16.8359 191.344 17.0703C191.318 17.2005 191.318 17.3568 191.344 17.5391C191.396 17.7214 191.448 17.8906 191.5 18.0469C191.552 18.8802 191.695 19.7135 191.93 20.5469C192.19 21.3542 192.464 22.0964 192.75 22.7734C192.75 22.9036 192.763 23.0339 192.789 23.1641C192.841 23.2943 192.893 23.4245 192.945 23.5547C193.023 24.388 192.945 25.2214 192.711 26.0547C192.477 26.862 192.255 27.6562 192.047 28.4375C191.891 28.6979 191.76 28.9974 191.656 29.3359C191.604 29.4922 191.552 29.6224 191.5 29.7266C191.448 29.8307 191.37 29.9479 191.266 30.0781C191.135 30.2865 191.018 30.5208 190.914 30.7812C190.81 31.0417 190.602 31.25 190.289 31.4062C190.107 31.4583 189.924 31.4583 189.742 31.4062C189.586 31.3542 189.43 31.3542 189.273 31.4062C189.143 31.4323 189.026 31.4583 188.922 31.4844C188.818 31.5365 188.714 31.5625 188.609 31.5625C188.271 31.6146 187.984 31.5755 187.75 31.4453C187.542 31.3411 187.281 31.263 186.969 31.2109C186.969 31.1328 186.93 31.0677 186.852 31.0156C186.773 30.9896 186.708 30.9505 186.656 30.8984C186.552 30.4818 186.448 30.1823 186.344 30C186.24 29.8177 186.161 29.6224 186.109 29.4141C186.031 29.1276 185.992 28.8542 185.992 28.5938C185.992 28.3073 185.927 28.0208 185.797 27.7344C185.693 27.526 185.641 27.3828 185.641 27.3047C185.667 27.2266 185.68 27.1484 185.68 27.0703C185.68 26.7318 185.654 26.3672 185.602 25.9766C185.576 25.5599 185.745 25.2214 186.109 24.9609C186.24 24.8568 186.331 24.7266 186.383 24.5703C186.461 24.388 186.578 24.2318 186.734 24.1016C186.786 24.0495 186.865 24.0234 186.969 24.0234C187.099 24.0234 187.19 24.0365 187.242 24.0625L187.477 24.2578ZM207.438 8.4375C207.776 8.48958 208.062 8.52865 208.297 8.55469C208.531 8.58073 208.74 8.60677 208.922 8.63281C209.13 8.63281 209.339 8.63281 209.547 8.63281C209.755 8.60677 210.016 8.56771 210.328 8.51562C210.901 8.4375 211.409 8.3724 211.852 8.32031C212.32 8.24219 212.828 8.17708 213.375 8.125C213.531 8.09896 213.688 8.09896 213.844 8.125C214.026 8.15104 214.195 8.16406 214.352 8.16406C214.69 8.16406 215.016 8.15104 215.328 8.125C215.667 8.09896 215.979 8.07292 216.266 8.04688C216.37 8.02083 216.461 7.99479 216.539 7.96875C216.617 7.94271 216.695 7.94271 216.773 7.96875C217.008 7.96875 217.242 7.96875 217.477 7.96875C217.711 7.94271 217.919 8.02083 218.102 8.20312C218.18 8.46354 218.206 8.60677 218.18 8.63281C218.154 8.65885 218.128 8.69792 218.102 8.75C218.076 9.08854 218.023 9.25781 217.945 9.25781C217.893 9.25781 217.867 9.28385 217.867 9.33594C217.659 9.38802 217.477 9.4401 217.32 9.49219C217.19 9.51823 217.086 9.59635 217.008 9.72656C216.565 9.83073 216.148 9.85677 215.758 9.80469C215.393 9.72656 215.016 9.77865 214.625 9.96094C214.443 10.0391 214.247 10.1432 214.039 10.2734C213.857 10.3776 213.622 10.3776 213.336 10.2734C213.076 10.2734 212.776 10.2865 212.438 10.3125C212.099 10.3385 211.773 10.3646 211.461 10.3906C210.862 10.4427 210.341 10.4948 209.898 10.5469C209.482 10.5729 209.078 10.599 208.688 10.625C208.297 10.625 207.893 10.638 207.477 10.6641C207.086 10.6901 206.604 10.7031 206.031 10.7031C205.823 10.8854 205.68 11.1068 205.602 11.3672C205.549 11.6276 205.419 11.8359 205.211 11.9922C205.003 12.487 204.833 12.8255 204.703 13.0078C204.573 13.1641 204.482 13.3594 204.43 13.5938C204.065 14.0625 203.727 14.5573 203.414 15.0781C203.128 15.5729 202.789 16.0417 202.398 16.4844C202.346 16.7708 202.242 17.0312 202.086 17.2656C201.956 17.474 201.865 17.7604 201.812 18.125C201.526 18.5156 201.318 18.9453 201.188 19.4141C201.057 19.8828 200.888 20.3776 200.68 20.8984C200.628 21.1068 200.562 21.3151 200.484 21.5234C200.432 21.7057 200.367 21.901 200.289 22.1094C200.185 22.3698 200.055 22.6172 199.898 22.8516C199.768 23.0599 199.638 23.2943 199.508 23.5547C199.456 23.6068 199.43 23.6849 199.43 23.7891C199.43 23.8672 199.417 23.9323 199.391 23.9844C199.312 24.1667 199.234 24.3359 199.156 24.4922C199.078 24.6224 199.013 24.7526 198.961 24.8828C198.909 25.013 198.87 25.1562 198.844 25.3125C198.844 25.4427 198.818 25.5729 198.766 25.7031C198.74 25.7812 198.714 25.8594 198.688 25.9375C198.661 25.9896 198.635 26.0547 198.609 26.1328C198.531 26.4974 198.531 26.7448 198.609 26.875C198.688 27.0052 198.753 27.1354 198.805 27.2656C198.857 27.4219 198.909 27.5651 198.961 27.6953C199.013 27.7995 199.052 27.9167 199.078 28.0469C199.208 28.099 199.326 28.151 199.43 28.2031C199.56 28.2552 199.69 28.2812 199.82 28.2812C199.977 28.3073 200.146 28.2422 200.328 28.0859C200.51 27.9036 200.667 27.7995 200.797 27.7734C200.979 27.7214 201.148 27.6953 201.305 27.6953C201.487 27.6953 201.643 27.6562 201.773 27.5781C201.93 27.4479 202.06 27.3177 202.164 27.1875C202.268 27.0573 202.411 26.9661 202.594 26.9141C203.01 26.8099 203.232 26.7318 203.258 26.6797C203.284 26.6016 203.375 26.4974 203.531 26.3672C203.714 26.237 203.87 26.1198 204 26.0156C204.156 25.8854 204.339 25.7552 204.547 25.625C204.807 25.4948 204.951 25.4167 204.977 25.3906C205.029 25.3646 205.146 25.2734 205.328 25.1172C205.589 24.987 205.81 24.8438 205.992 24.6875C206.174 24.5312 206.383 24.388 206.617 24.2578C206.878 24.1536 207.034 24.0885 207.086 24.0625C207.138 24.0104 207.164 23.9714 207.164 23.9453C207.19 23.9193 207.216 23.8802 207.242 23.8281C207.294 23.776 207.424 23.6849 207.633 23.5547C207.737 23.3464 207.854 23.1771 207.984 23.0469C208.115 22.9167 208.271 22.7474 208.453 22.5391C208.609 22.3568 208.766 22.2005 208.922 22.0703C209.104 21.9401 209.26 21.8099 209.391 21.6797C209.469 21.6276 209.534 21.5755 209.586 21.5234C209.638 21.4453 209.729 21.3932 209.859 21.3672C210.016 21.237 210.133 21.1328 210.211 21.0547C210.315 20.9505 210.471 20.8073 210.68 20.625C210.732 20.5729 210.797 20.5078 210.875 20.4297C210.953 20.3516 211.018 20.2995 211.07 20.2734C211.174 20.2734 211.253 20.3125 211.305 20.3906C211.383 20.4688 211.474 20.5078 211.578 20.5078C211.552 20.8464 211.539 21.0677 211.539 21.1719C211.539 21.25 211.513 21.3411 211.461 21.4453C211.305 21.6797 211.122 21.8099 210.914 21.8359C210.732 21.862 210.589 22.0052 210.484 22.2656C210.406 22.2135 210.302 22.2005 210.172 22.2266C210.068 22.2526 209.99 22.2917 209.938 22.3438C209.99 22.4479 210.016 22.5391 210.016 22.6172C210.016 22.6953 210.029 22.7865 210.055 22.8906C209.586 23.3594 209.273 23.737 209.117 24.0234C208.805 24.362 208.635 24.5573 208.609 24.6094C208.583 24.6354 208.57 24.6484 208.57 24.6484C208.57 24.6484 208.557 24.6615 208.531 24.6875C208.505 24.7135 208.414 24.8047 208.258 24.9609C207.893 25.2474 207.62 25.5208 207.438 25.7812C207.255 26.0417 206.982 26.276 206.617 26.4844C206.331 26.6927 206.135 26.849 206.031 26.9531C205.927 27.0573 205.771 27.2005 205.562 27.3828C205.458 27.487 205.354 27.6042 205.25 27.7344C205.172 27.8385 205.068 27.9427 204.938 28.0469C204.755 28.1771 204.573 28.2943 204.391 28.3984C204.234 28.5026 204.091 28.6328 203.961 28.7891C203.57 28.9714 203.284 29.1797 203.102 29.4141C202.945 29.6484 202.698 29.8698 202.359 30.0781C202.125 30.2344 201.799 30.4297 201.383 30.6641C200.992 30.8984 200.654 31.0677 200.367 31.1719C200.289 31.1979 200.211 31.224 200.133 31.25C200.081 31.276 200.016 31.3021 199.938 31.3281C199.729 31.1979 199.521 31.0677 199.312 30.9375C199.13 30.8073 198.974 30.625 198.844 30.3906C198.609 30.2083 198.414 30.0781 198.258 30C198.128 29.9219 197.997 29.8177 197.867 29.6875C197.607 29.2448 197.307 28.8021 196.969 28.3594C196.656 27.9167 196.409 27.4219 196.227 26.875C196.174 26.7708 196.135 26.6667 196.109 26.5625C196.109 26.4323 196.096 26.3021 196.07 26.1719C196.018 25.9635 195.966 25.7812 195.914 25.625C195.862 25.4688 195.849 25.2734 195.875 25.0391C195.875 24.8828 195.901 24.7135 195.953 24.5312C196.005 24.349 196.057 24.1536 196.109 23.9453C196.214 23.6068 196.331 23.2812 196.461 22.9688C196.617 22.6562 196.734 22.3177 196.812 21.9531C196.891 21.6667 196.969 21.4062 197.047 21.1719C197.125 20.9375 197.216 20.6771 197.32 20.3906C197.372 20.2604 197.398 20.1432 197.398 20.0391C197.424 19.9089 197.503 19.8177 197.633 19.7656C197.737 19.2448 197.906 18.75 198.141 18.2812C198.375 17.7865 198.609 17.3177 198.844 16.875C199.13 16.3281 199.391 15.7682 199.625 15.1953C199.885 14.6224 200.159 14.0625 200.445 13.5156C200.471 13.2031 200.576 12.9427 200.758 12.7344C200.784 12.4479 200.888 12.1745 201.07 11.9141C201.253 11.6276 201.383 11.3411 201.461 11.0547C201.174 10.9766 200.849 10.9766 200.484 11.0547C200.146 11.1068 199.846 11.1589 199.586 11.2109C199.117 11.237 198.622 11.237 198.102 11.2109C197.919 11.1849 197.737 11.1589 197.555 11.1328C197.398 11.0807 197.242 11.0547 197.086 11.0547C196.852 11.0807 196.669 11.0677 196.539 11.0156C196.435 10.9375 196.318 10.9245 196.188 10.9766C195.849 10.6901 195.602 10.4948 195.445 10.3906C195.289 10.2865 195.146 10.1953 195.016 10.1172C194.859 10.013 194.729 9.90885 194.625 9.80469C194.495 9.67448 194.391 9.49219 194.312 9.25781C194.312 9.17969 194.352 9.11458 194.43 9.0625C194.508 9.01042 194.573 8.95833 194.625 8.90625C194.833 8.85417 195.068 8.84115 195.328 8.86719C195.589 8.86719 195.797 8.8151 195.953 8.71094C196.37 8.76302 196.747 8.73698 197.086 8.63281C197.451 8.52865 197.828 8.48958 198.219 8.51562C198.297 8.51562 198.375 8.52865 198.453 8.55469C198.531 8.58073 198.609 8.59375 198.688 8.59375C198.818 8.61979 198.922 8.61979 199 8.59375C199.104 8.56771 199.221 8.54167 199.352 8.51562C199.508 8.48958 199.677 8.48958 199.859 8.51562C200.042 8.54167 200.224 8.54167 200.406 8.51562C200.745 8.48958 201.148 8.52865 201.617 8.63281C202.112 8.71094 202.542 8.6849 202.906 8.55469C203.036 8.1901 203.18 7.82552 203.336 7.46094C203.518 7.07031 203.661 6.69271 203.766 6.32812C203.87 6.17188 203.974 6.0026 204.078 5.82031C204.182 5.61198 204.26 5.41667 204.312 5.23438C204.469 4.97396 204.586 4.76562 204.664 4.60938C204.768 4.45312 204.885 4.29688 205.016 4.14062C205.198 3.77604 205.328 3.42448 205.406 3.08594C205.51 2.72135 205.641 2.33073 205.797 1.91406C206.135 1.54948 206.474 1.10677 206.812 0.585938C206.995 0.611979 207.138 0.559896 207.242 0.429688C207.372 0.299479 207.555 0.3125 207.789 0.46875C207.789 0.546875 207.815 0.625 207.867 0.703125C207.945 0.755208 207.958 0.846354 207.906 0.976562C208.036 1.10677 208.141 1.22396 208.219 1.32812C208.297 1.43229 208.362 1.54948 208.414 1.67969C208.466 1.88802 208.44 2.13542 208.336 2.42188C208.258 2.68229 208.284 2.92969 208.414 3.16406C208.466 3.29427 208.479 3.42448 208.453 3.55469C208.427 3.65885 208.44 3.76302 208.492 3.86719C208.544 3.9974 208.609 4.1276 208.688 4.25781C208.792 4.38802 208.844 4.55729 208.844 4.76562C208.844 4.84375 208.818 4.94792 208.766 5.07812C208.74 5.18229 208.701 5.29948 208.648 5.42969C208.544 5.82031 208.466 6.09375 208.414 6.25C208.362 6.40625 208.31 6.57552 208.258 6.75781C208.076 6.96615 207.984 7.10938 207.984 7.1875C207.984 7.23958 207.971 7.29167 207.945 7.34375C207.867 7.5 207.776 7.69531 207.672 7.92969C207.594 8.13802 207.516 8.30729 207.438 8.4375Z" fill="black"/>
</svg>
